<svg width="20" height="20" viewBox="0 0 20 20" fill="none" xmlns="http://www.w3.org/2000/svg">
<path d="M17.38 1.05979C17.3 0.966452 17.2 0.916452 17.08 0.909786C16.96 0.903118 16.8533 0.936453 16.76 1.00978C16.6667 1.08312 16.6133 1.17978 16.6 1.29979C16.5867 1.41979 16.62 1.53312 16.7 1.63979L18.1 3.29979C17.62 3.21979 17.1667 3.29645 16.74 3.52979C16.3133 3.76312 16.01 4.10645 15.83 4.55979C15.65 5.01312 15.63 5.47312 15.77 5.93979C15.91 6.40645 16.18 6.77645 16.58 7.04979C16.98 7.32312 17.4233 7.44312 17.91 7.40979C18.3967 7.37645 18.8133 7.19312 19.16 6.85979V11.2598C19.16 11.4731 19.1067 11.6731 19 11.8598C18.8933 12.0465 18.75 12.1898 18.57 12.2898C18.39 12.3898 18.1933 12.4398 17.98 12.4398C17.7667 12.4398 17.5667 12.3865 17.38 12.2798C17.1933 12.1731 17.0467 12.0298 16.94 11.8498C16.8333 11.6698 16.78 11.4731 16.78 11.2598V9.91979C16.78 9.41312 16.6033 8.98312 16.25 8.62979C15.8967 8.27645 15.4667 8.09979 14.96 8.09979H13.54V1.89979C13.54 1.37979 13.3533 0.936453 12.98 0.569786C12.6067 0.203119 12.16 0.0197849 11.64 0.0197849H1.9C1.36667 0.0197849 0.916667 0.203119 0.55 0.569786C0.183333 0.936453 0 1.37979 0 1.89979V18.8398C0 18.9598 0.0433333 19.0631 0.13 19.1498C0.216667 19.2365 0.32 19.2798 0.44 19.2798H13.1C13.22 19.2798 13.3233 19.2365 13.41 19.1498C13.4967 19.0631 13.54 18.9598 13.54 18.8398V8.97978H14.96C15.2267 8.97978 15.45 9.06979 15.63 9.24979C15.81 9.42979 15.9 9.65312 15.9 9.91979V11.2598C15.9 11.6331 15.9933 11.9798 16.18 12.2998C16.3667 12.6198 16.62 12.8698 16.94 13.0498C17.26 13.2298 17.6033 13.3198 17.97 13.3198C18.3367 13.3198 18.6833 13.2298 19.01 13.0498C19.3367 12.8698 19.59 12.6198 19.77 12.2998C19.95 11.9798 20.04 11.6331 20.04 11.2598V5.17979C20.04 4.85979 19.9833 4.54979 19.87 4.24979C19.7567 3.94979 19.5933 3.68645 19.38 3.45979L17.38 1.05979ZM12.66 18.3998H0.88V1.89979C0.88 1.63312 0.98 1.39979 1.18 1.19979C1.38 0.999786 1.62 0.899786 1.9 0.899786H11.64C11.92 0.899786 12.16 0.999786 12.36 1.19979C12.56 1.39979 12.66 1.63312 12.66 1.89979V18.3998ZM17.76 6.51979C17.4267 6.51979 17.1433 6.40645 16.91 6.17979C16.6767 5.95312 16.56 5.67312 16.56 5.33979C16.56 5.00645 16.6767 4.72645 16.91 4.49979C17.1433 4.27312 17.4233 4.15979 17.75 4.15979C18.0767 4.15979 18.3567 4.27312 18.59 4.49979C18.8233 4.72645 18.94 5.00645 18.94 5.33979C18.94 5.67312 18.8233 5.95312 18.59 6.17979C18.3567 6.40645 18.08 6.51979 17.76 6.51979ZM10.28 2.27979H3.26C2.88667 2.27979 2.57 2.40979 2.31 2.66979C2.05 2.92978 1.92 3.23979 1.92 3.59979V9.51978C1.92 9.63979 1.96333 9.74312 2.05 9.82979C2.13667 9.91645 2.24 9.95979 2.36 9.95979H11.16C11.2933 9.95979 11.4 9.91645 11.48 9.82979C11.56 9.74312 11.6 9.63979 11.6 9.51978V3.59979C11.6 3.23979 11.4733 2.92978 11.22 2.66979C10.9667 2.40979 10.6533 2.27979 10.28 2.27979ZM10.72 9.07979H2.82V3.59979C2.82 3.47979 2.86 3.37645 2.94 3.28979C3.02 3.20312 3.12667 3.15979 3.26 3.15979H10.28C10.4 3.15979 10.5033 3.20312 10.59 3.28979C10.6767 3.37645 10.72 3.47979 10.72 3.59979V9.07979ZM7.02 4.33979C6.92667 4.25979 6.82 4.21979 6.7 4.21979C6.58 4.21979 6.48 4.25979 6.4 4.33979L5.58 5.15979C5.35333 5.38645 5.20667 5.65979 5.14 5.97979C5.07333 6.29979 5.10333 6.61312 5.23 6.91979C5.35667 7.22645 5.55333 7.46979 5.82 7.64979C6.08667 7.82979 6.38667 7.91979 6.72 7.91979C6.93333 7.91979 7.14 7.87645 7.34 7.78979C7.54 7.70312 7.70667 7.58645 7.84 7.43979C8.16 7.13312 8.31667 6.75645 8.31 6.30979C8.30333 5.86312 8.14667 5.47979 7.84 5.15979L7.02 4.33979ZM7.22 6.81979C7.22 6.81979 7.22 6.82645 7.22 6.83979C7.06 6.97312 6.88667 7.03979 6.7 7.03979C6.51333 7.03979 6.35 6.96645 6.21 6.81979C6.07 6.67312 6 6.49979 6 6.29979C6 6.09979 6.06667 5.93312 6.2 5.79979L6.7 5.27979L7.22 5.77979C7.36667 5.92645 7.44 6.09979 7.44 6.29979C7.44 6.49979 7.36667 6.67312 7.22 6.81979Z" fill="#D7B65D"/>
</svg>
