<svg width="58" height="44" viewBox="0 0 58 44" fill="none" xmlns="http://www.w3.org/2000/svg">
<path d="M4.408 9.87811H13.34C13.6107 9.87811 13.8233 9.80077 13.978 9.64611C14.1327 9.49144 14.21 9.29811 14.21 9.06611C14.21 8.83411 14.1327 8.63111 13.978 8.45711C13.8233 8.28311 13.6107 8.19611 13.34 8.19611H4.408C4.176 8.19611 3.973 8.28311 3.799 8.45711C3.625 8.63111 3.538 8.83411 3.538 9.06611C3.538 9.29811 3.625 9.49144 3.799 9.64611C3.973 9.80077 4.176 9.87811 4.408 9.87811ZM13.05 13.9961H9.512C9.28 13.9961 9.077 14.0734 8.903 14.2281C8.729 14.3828 8.642 14.5858 8.642 14.8371C8.642 15.0884 8.729 15.2914 8.903 15.4461C9.077 15.6008 9.28 15.6781 9.512 15.6781H13.05C13.282 15.6781 13.485 15.6008 13.659 15.4461C13.833 15.2914 13.92 15.0981 13.92 14.8661C13.92 14.6341 13.833 14.4311 13.659 14.2571C13.485 14.0831 13.282 13.9961 13.05 13.9961ZM0.87 19.8541H9.512C9.744 19.8541 9.947 19.7768 10.121 19.6221C10.295 19.4674 10.382 19.2741 10.382 19.0421C10.382 18.8101 10.295 18.6071 10.121 18.4331C9.947 18.2591 9.744 18.1721 9.512 18.1721H0.87C0.638 18.1721 0.435 18.2591 0.261 18.4331C0.087 18.6071 0 18.8101 0 19.0421C0 19.2741 0.087 19.4674 0.261 19.6221C0.435 19.7768 0.638 19.8541 0.87 19.8541ZM14.21 34.9341C14.21 34.7021 14.1327 34.5088 13.978 34.3541C13.8233 34.1994 13.6107 34.1221 13.34 34.1221H4.408C4.176 34.1221 3.973 34.1994 3.799 34.3541C3.625 34.5088 3.538 34.7021 3.538 34.9341C3.538 35.1661 3.625 35.3691 3.799 35.5431C3.973 35.7171 4.176 35.8041 4.408 35.8041H13.34C13.6107 35.8041 13.8233 35.7171 13.978 35.5431C14.1327 35.3691 14.21 35.1661 14.21 34.9341ZM13.05 28.3221H9.512C9.28 28.3221 9.077 28.3994 8.903 28.5541C8.729 28.7088 8.642 28.9021 8.642 29.1341C8.642 29.3661 8.729 29.5691 8.903 29.7431C9.077 29.9171 9.28 30.0041 9.512 30.0041H13.05C13.282 30.0041 13.485 29.9171 13.659 29.7431C13.833 29.5691 13.92 29.3661 13.92 29.1341C13.92 28.9021 13.833 28.7088 13.659 28.5541C13.485 28.3994 13.282 28.3221 13.05 28.3221ZM10.382 24.9581C10.382 24.7261 10.295 24.5231 10.121 24.3491C9.947 24.1751 9.744 24.0881 9.512 24.0881H0.87C0.638 24.0881 0.435 24.1751 0.261 24.3491C0.087 24.5231 0 24.7261 0 24.9581C0 25.1901 0.087 25.3931 0.261 25.5671C0.435 25.7411 0.638 25.8281 0.87 25.8281H9.512C9.744 25.8281 9.947 25.7411 10.121 25.5671C10.295 25.3931 10.382 25.1901 10.382 24.9581ZM36.192 11.7921C36.424 11.7921 36.627 11.7051 36.801 11.5311C36.975 11.3571 37.062 11.1541 37.062 10.9221V9.64611C37.062 9.41411 36.975 9.21111 36.801 9.03711C36.627 8.86311 36.424 8.77611 36.192 8.77611C35.96 8.77611 35.757 8.86311 35.583 9.03711C35.409 9.21111 35.322 9.41411 35.322 9.64611V10.9221C35.322 11.1541 35.409 11.3571 35.583 11.5311C35.757 11.7051 35.96 11.7921 36.192 11.7921ZM45.53 12.6621C45.3753 12.4688 45.182 12.3721 44.95 12.3721C44.718 12.3721 44.5053 12.4688 44.312 12.6621L43.442 13.5901C43.2873 13.7448 43.21 13.9381 43.21 14.1701C43.21 14.4021 43.2873 14.5954 43.442 14.7501C43.5967 14.9048 43.79 14.9821 44.022 14.9821C44.254 14.9821 44.4473 14.9048 44.602 14.7501L45.53 13.8801C45.7233 13.6868 45.82 13.4741 45.82 13.2421C45.82 13.0101 45.7233 12.8168 45.53 12.6621ZM47.27 21.1301C47.038 21.1301 46.835 21.2171 46.661 21.3911C46.487 21.5651 46.4 21.7681 46.4 22.0001C46.4 22.2321 46.487 22.4351 46.661 22.6091C46.835 22.7831 47.038 22.8701 47.27 22.8701H48.546C48.778 22.8701 48.981 22.7831 49.155 22.6091C49.329 22.4351 49.416 22.2321 49.416 22.0001C49.416 21.7681 49.329 21.5651 49.155 21.3911C48.981 21.2171 48.778 21.1301 48.546 21.1301H47.27ZM44.602 29.1921C44.4473 29.0374 44.254 28.9601 44.022 28.9601C43.79 28.9601 43.5967 29.0374 43.442 29.1921C43.2873 29.3468 43.21 29.5401 43.21 29.7721C43.21 30.0041 43.2873 30.2168 43.442 30.4101L44.312 31.3381C44.5053 31.4928 44.718 31.5701 44.95 31.5701C45.182 31.5701 45.385 31.4831 45.559 31.3091C45.733 31.1351 45.82 30.9321 45.82 30.7001C45.82 30.4681 45.7233 30.2748 45.53 30.1201L44.602 29.1921ZM35.322 33.0781V34.3541C35.322 34.5861 35.409 34.7891 35.583 34.9631C35.757 35.1371 35.96 35.2241 36.192 35.2241C36.424 35.2241 36.627 35.1371 36.801 34.9631C36.975 34.7891 37.062 34.5861 37.062 34.3541V33.0781C37.062 32.8461 36.975 32.6431 36.801 32.4691C36.627 32.2951 36.424 32.2081 36.192 32.2081C35.96 32.2081 35.757 32.2951 35.583 32.4691C35.409 32.6431 35.322 32.8461 35.322 33.0781ZM27.782 29.1921L26.854 30.1201C26.6993 30.2748 26.622 30.4681 26.622 30.7001C26.622 30.9321 26.709 31.1351 26.883 31.3091C27.057 31.4831 27.26 31.5701 27.492 31.5701C27.724 31.5701 27.9173 31.4928 28.072 31.3381L29 30.4101C29.1547 30.2168 29.232 30.0041 29.232 29.7721C29.232 29.5401 29.1547 29.3468 29 29.1921C28.8453 29.0374 28.652 28.9601 28.42 28.9601C28.188 28.9601 27.9753 29.0374 27.782 29.1921ZM23.838 21.1301C23.606 21.1301 23.403 21.2171 23.229 21.3911C23.055 21.5651 22.968 21.7681 22.968 22.0001C22.968 22.2321 23.055 22.4351 23.229 22.6091C23.403 22.7831 23.606 22.8701 23.838 22.8701H25.114C25.346 22.8701 25.549 22.7831 25.723 22.6091C25.897 22.4351 25.984 22.2321 25.984 22.0001C25.984 21.7681 25.897 21.5651 25.723 21.3911C25.549 21.2171 25.346 21.1301 25.114 21.1301H23.838ZM29 13.5901L28.072 12.6621C27.9173 12.4688 27.724 12.3721 27.492 12.3721C27.26 12.3721 27.057 12.4591 26.883 12.6331C26.709 12.8071 26.622 13.0101 26.622 13.2421C26.622 13.4741 26.6993 13.6868 26.854 13.8801L27.782 14.7501C27.9753 14.9048 28.188 14.9821 28.42 14.9821C28.652 14.9821 28.8453 14.9048 29 14.7501C29.1547 14.5954 29.232 14.4021 29.232 14.1701C29.232 13.9381 29.1547 13.7448 29 13.5901ZM40.774 22.0001C40.774 21.7681 40.687 21.5651 40.513 21.3911C40.339 21.2171 40.136 21.1301 39.904 21.1301H37.062V14.8661C37.062 14.5954 36.975 14.3828 36.801 14.2281C36.627 14.0734 36.424 13.9961 36.192 13.9961C35.96 13.9961 35.757 14.0734 35.583 14.2281C35.409 14.3828 35.322 14.5954 35.322 14.8661V22.0001C35.322 22.2321 35.409 22.4351 35.583 22.6091C35.757 22.7831 35.96 22.8701 36.192 22.8701H39.904C40.136 22.8701 40.339 22.7831 40.513 22.6091C40.687 22.4351 40.774 22.2321 40.774 22.0001ZM52.316 21.8841C52.548 21.8454 52.7413 21.7391 52.896 21.5651C53.0507 21.3911 53.128 21.1881 53.128 20.9561C52.9347 18.0174 52.055 15.3398 50.489 12.9231C48.923 10.5064 46.8833 8.59244 44.37 7.18111C41.8567 5.76978 39.1307 5.06411 36.192 5.06411C33.1373 5.06411 30.2953 5.83744 27.666 7.38411C25.114 8.89211 23.084 10.9221 21.576 13.4741C20.0293 16.1034 19.256 18.9454 19.256 22.0001C19.256 25.0548 20.0293 27.8968 21.576 30.5261C23.084 33.0781 25.114 35.1081 27.666 36.6161C30.2953 38.1628 33.1373 38.9361 36.192 38.9361C38.9373 38.9361 41.5183 38.3078 43.935 37.0511C46.3517 35.7944 48.3623 34.0738 49.967 31.8891C51.5717 29.7044 52.5673 27.2588 52.954 24.5521C52.9927 24.3201 52.9443 24.1074 52.809 23.9141C52.6737 23.7208 52.49 23.6048 52.258 23.5661C52.026 23.5274 51.8133 23.5758 51.62 23.7111C51.4267 23.8464 51.3107 24.0301 51.272 24.2621C50.924 26.6981 50.025 28.9118 48.575 30.9031C47.125 32.8944 45.3173 34.4508 43.152 35.5721C40.9867 36.6934 38.6667 37.2541 36.192 37.2541C33.4467 37.2541 30.9043 36.5678 28.565 35.1951C26.2257 33.8224 24.3697 31.9664 22.997 29.6271C21.6243 27.2878 20.938 24.7454 20.938 22.0001C20.938 19.2548 21.6243 16.7124 22.997 14.3731C24.3697 12.0338 26.2257 10.1778 28.565 8.80511C30.9043 7.43244 33.4467 6.74611 36.192 6.74611C38.8213 6.74611 41.2767 7.38411 43.558 8.66011C45.8393 9.93611 47.676 11.6664 49.068 13.8511C50.46 16.0358 51.2333 18.4428 51.388 21.0721C51.4267 21.3041 51.533 21.4974 51.707 21.6521C51.881 21.8068 52.084 21.8841 52.316 21.8841ZM36.192 0.192108C33.2147 0.192108 30.3533 0.791443 27.608 1.99011H12.586C12.354 1.99011 12.1607 2.06744 12.006 2.22211C11.8513 2.37678 11.774 2.57011 11.774 2.80211C11.774 3.03411 11.8513 3.23711 12.006 3.41111C12.1607 3.58511 12.354 3.67211 12.586 3.67211H24.418C22.794 4.71611 21.3247 5.95344 20.01 7.38411C19.8553 7.57744 19.7877 7.78044 19.807 7.99311C19.8263 8.20578 19.9133 8.38944 20.068 8.54411C20.2227 8.69878 20.4257 8.77611 20.677 8.77611C20.9283 8.77611 21.1313 8.67944 21.286 8.48611C23.2193 6.39811 25.4813 4.77411 28.072 3.61411C30.6627 2.45411 33.3693 1.87411 36.192 1.87411C39.8267 1.87411 43.21 2.80211 46.342 4.65811C49.358 6.43678 51.7553 8.83411 53.534 11.8501C55.39 14.9821 56.318 18.3654 56.318 22.0001C56.318 25.6348 55.39 29.0181 53.534 32.1501C51.7553 35.1661 49.358 37.5634 46.342 39.3421C43.21 41.1981 39.8267 42.1261 36.192 42.1261C32.5573 42.1261 29.174 41.1981 26.042 39.3421C23.026 37.5634 20.6287 35.1661 18.85 32.1501C17.0327 29.0181 16.124 25.6348 16.124 22.0001C16.124 18.0561 17.1873 14.4214 19.314 11.0961C19.43 10.9028 19.459 10.6901 19.401 10.4581C19.343 10.2261 19.227 10.0424 19.053 9.90711C18.879 9.77177 18.676 9.73311 18.444 9.79111C18.212 9.84911 18.0187 9.97477 17.864 10.1681C15.544 13.8028 14.384 17.7468 14.384 22.0001C14.384 25.7508 15.312 29.2694 17.168 32.5561C18.9467 35.7654 21.3633 38.3561 24.418 40.3281H12.586C12.354 40.3281 12.1607 40.4054 12.006 40.5601C11.8513 40.7148 11.774 40.9274 11.774 41.1981C11.774 41.4688 11.8513 41.6718 12.006 41.8071C12.1607 41.9424 12.354 42.0101 12.586 42.0101H27.55C30.2953 43.2088 33.176 43.8081 36.192 43.8081C40.136 43.8081 43.79 42.8221 47.154 40.8501C50.4793 38.9168 53.1087 36.2874 55.042 32.9621C57.014 29.5981 58 25.9441 58 22.0001C58 18.0561 57.014 14.4021 55.042 11.0381C53.1087 7.71278 50.4793 5.08344 47.154 3.15011C43.79 1.17811 40.136 0.192108 36.192 0.192108Z" fill="#D7B65D"/>
</svg>
