<svg width="58" height="48" viewBox="0 0 58 48" fill="none" xmlns="http://www.w3.org/2000/svg">
<path d="M54.3463 9.91821e-05H48.8943C48.6623 9.91821e-05 48.4593 0.0870972 48.2853 0.261101C48.1113 0.435101 48.0243 0.6381 48.0243 0.870098C48.0243 1.1021 48.1113 1.3051 48.2853 1.4791C48.4593 1.6531 48.6623 1.7401 48.8943 1.7401H54.3463C54.8876 1.7401 55.342 1.92377 55.7093 2.2911C56.0766 2.65843 56.2603 3.11277 56.2603 3.6541V16.7621C56.2603 17.3034 56.0766 17.7674 55.7093 18.1541C55.342 18.5408 54.8876 18.7341 54.3463 18.7341H34.2783C34.0077 18.7341 33.795 18.8114 33.6403 18.9661L28.7103 23.8961V19.5461C28.7103 19.3141 28.6233 19.1208 28.4493 18.9661C28.2753 18.8114 28.0723 18.7341 27.8403 18.7341H26.2163C25.675 18.7341 25.211 18.5408 24.8243 18.1541C24.4377 17.7674 24.2443 17.3034 24.2443 16.7621V3.6541C24.2443 3.11277 24.4377 2.65843 24.8243 2.2911C25.211 1.92377 25.675 1.7401 26.2163 1.7401H46.0523C46.2843 1.7401 46.4776 1.6531 46.6323 1.4791C46.787 1.3051 46.8643 1.1021 46.8643 0.870098C46.8643 0.6381 46.787 0.435101 46.6323 0.261101C46.4776 0.0870972 46.2843 9.91821e-05 46.0523 9.91821e-05H26.2163C25.211 9.91821e-05 24.3507 0.357765 23.6353 1.0731C22.92 1.78843 22.5623 2.64877 22.5623 3.6541V16.7621C22.5623 17.7674 22.92 18.6278 23.6353 19.3431C24.3507 20.0584 25.211 20.4161 26.2163 20.4161H26.9703V25.9841C26.9703 26.3321 27.1443 26.6028 27.4923 26.7961L27.8403 26.8541C28.0337 26.8541 28.227 26.7574 28.4203 26.5641L34.6263 20.4161H54.3463C55.3517 20.4161 56.212 20.0584 56.9273 19.3431C57.6427 18.6278 58.0003 17.7674 58.0003 16.7621V3.6541C58.0003 2.64877 57.6427 1.78843 56.9273 1.0731C56.212 0.357765 55.3517 9.91821e-05 54.3463 9.91821e-05ZM31.0883 11.0201C31.0883 11.0201 31.1077 11.0008 31.1463 10.9621C31.8423 10.4981 32.3257 10.0921 32.5963 9.7441C33.099 9.20277 33.3503 8.59377 33.3503 7.9171C33.3503 7.24043 33.0797 6.6701 32.5383 6.2061C32.0357 5.81943 31.446 5.6261 30.7693 5.6261C30.0927 5.6261 29.4933 5.81943 28.9713 6.2061C28.4493 6.59277 28.1883 7.1341 28.1883 7.8301C28.1883 8.4101 28.459 8.7001 29.0003 8.7001C29.271 8.7001 29.4933 8.6421 29.6673 8.5261C29.8413 8.4101 29.9283 8.25543 29.9283 8.0621C29.9283 7.52077 30.199 7.2501 30.7403 7.2501C31.0497 7.2501 31.272 7.32743 31.4073 7.4821C31.5427 7.63676 31.6103 7.81076 31.6103 8.0041C31.6103 8.31343 31.4363 8.6421 31.0883 8.9901C30.895 9.18343 30.5083 9.4831 29.9283 9.8891C29.3483 10.2951 28.923 10.6528 28.6523 10.9621C28.2657 11.3874 28.0723 11.8128 28.0723 12.2381V13.3401C28.0723 13.4948 28.1593 13.6204 28.3333 13.7171C28.5073 13.8138 28.6717 13.8621 28.8263 13.8621H32.8283C32.983 13.8621 33.1087 13.7848 33.2053 13.6301C33.302 13.4754 33.3503 13.2918 33.3503 13.0791C33.3503 12.8664 33.302 12.6828 33.2053 12.5281C33.1087 12.3734 32.983 12.2961 32.8283 12.2961H29.8703V12.2381C29.8703 12.0834 29.967 11.9094 30.1603 11.7161C30.2763 11.6001 30.5083 11.4261 30.8563 11.1941L31.0883 11.0201ZM38.1063 13.8621C38.4156 13.8621 38.6477 13.8041 38.8023 13.6881C38.957 13.5721 39.0343 13.4561 39.0343 13.3401V12.1221H39.4983C39.6143 12.1221 39.7303 12.0351 39.8463 11.8611C39.9623 11.6871 40.0203 11.4841 40.0203 11.2521C40.0203 11.0201 39.9623 10.8364 39.8463 10.7011C39.7303 10.5658 39.6143 10.4981 39.4983 10.4981H39.0343V9.7441C39.0343 9.35743 38.7346 9.1641 38.1353 9.1641C37.536 9.1641 37.2363 9.35743 37.2363 9.7441V10.4981H36.3083L38.2803 6.5541L38.3383 6.3221C38.3383 6.12877 38.2416 5.96443 38.0483 5.8291C37.855 5.69376 37.6617 5.6261 37.4683 5.6261C37.0816 5.6261 36.8303 5.78077 36.7143 6.0901L34.1043 11.1941C34.0657 11.2714 34.0463 11.3874 34.0463 11.5421C34.0463 11.6968 34.1043 11.8321 34.2203 11.9481C34.3363 12.0641 34.4717 12.1221 34.6263 12.1221H37.2363V13.3401C37.2363 13.4561 37.3137 13.5721 37.4683 13.6881C37.623 13.8041 37.8357 13.8621 38.1063 13.8621ZM44.8343 5.4521L40.8903 13.5721C40.8517 13.6108 40.8323 13.6688 40.8323 13.7461C40.8323 13.9394 40.8903 14.0941 41.0063 14.2101C41.1223 14.3261 41.277 14.3841 41.4703 14.3841C41.741 14.3841 41.915 14.2874 41.9923 14.0941L45.9363 5.9741C45.975 5.93543 45.9943 5.87743 45.9943 5.8001C45.9943 5.60677 45.9267 5.4521 45.7913 5.3361C45.656 5.2201 45.482 5.1621 45.2693 5.1621C45.0567 5.1621 44.9117 5.25877 44.8343 5.4521ZM47.8503 8.4681C48.0823 8.4681 48.2853 8.41977 48.4593 8.3231C48.6333 8.22643 48.7203 8.10077 48.7203 7.9461V7.1921H50.6923V7.9461L47.9663 12.7601C47.889 12.8374 47.8503 12.9341 47.8503 13.0501C47.8503 13.2821 47.976 13.4851 48.2273 13.6591C48.4786 13.8331 48.73 13.9201 48.9813 13.9201C49.2327 13.9201 49.4163 13.8428 49.5323 13.6881L52.1423 8.6421C52.3743 8.1781 52.4903 7.8301 52.4903 7.5981V6.2061C52.4903 6.0901 52.413 5.96443 52.2583 5.8291C52.1036 5.69376 51.9296 5.6261 51.7363 5.6261H47.7343C47.541 5.6261 47.367 5.6841 47.2123 5.8001C47.0577 5.9161 46.9803 6.05143 46.9803 6.2061V7.9461C46.9803 8.10077 47.0577 8.22643 47.2123 8.3231C47.367 8.41977 47.5797 8.4681 47.8503 8.4681ZM35.5543 29.8121C35.0517 29.3868 34.491 29.1741 33.8723 29.1741C33.2537 29.1741 32.693 29.3868 32.1903 29.8121L26.9703 35.0901C25.733 34.4328 24.7277 33.8721 23.9543 33.4081C22.9103 32.7508 21.9243 32.0354 20.9963 31.2621C20.8417 31.1074 20.6387 31.0301 20.3873 31.0301C20.136 31.0301 19.933 31.1268 19.7783 31.3201C19.6237 31.5134 19.556 31.7261 19.5753 31.9581C19.5947 32.1901 19.701 32.3834 19.8943 32.5381C20.977 33.4274 22.0983 34.2394 23.2583 34.9741C24.1863 35.5541 25.3463 36.1921 26.7383 36.8881C26.893 36.9654 27.0573 36.9944 27.2313 36.9751C27.4053 36.9558 27.5697 36.8881 27.7243 36.7721L30.5663 33.9301L39.8463 43.2681C38.3383 44.5441 36.55 45.4044 34.4813 45.8491C32.4127 46.2938 30.1603 46.2648 27.7243 45.7621C25.0177 45.2208 22.2627 44.1381 19.4593 42.5141C16.656 40.8901 14.0073 38.8311 11.5133 36.3371C9.01932 33.8431 6.96032 31.2041 5.33632 28.4201C3.71232 25.6361 2.62965 22.8714 2.08832 20.1261C1.62432 17.6901 1.60499 15.4378 2.03032 13.3691C2.45565 11.3004 3.32565 9.5121 4.64032 8.0041L13.9203 17.3421L11.1363 20.1841C10.9817 20.3001 10.8947 20.4451 10.8753 20.6191C10.856 20.7931 10.885 20.9768 10.9623 21.1701C12.0063 23.1808 12.8763 24.6888 13.5723 25.6941C14.6163 27.2408 15.931 28.7874 17.5163 30.3341C17.7097 30.4888 17.9223 30.5661 18.1543 30.5661C18.3863 30.5661 18.5893 30.4888 18.7633 30.3341C18.9373 30.1794 19.0243 29.9764 19.0243 29.7251C19.0243 29.4738 18.9277 29.2708 18.7343 29.1161C17.3037 27.6854 16.105 26.3128 15.1383 24.9981C14.4423 23.9928 13.6497 22.6394 12.7603 20.9381L18.0383 15.6601C18.5023 15.2348 18.7343 14.6741 18.7343 13.9781C18.7343 13.2821 18.5023 12.7408 18.0383 12.3541L9.62832 3.8861C9.08699 3.4221 8.52632 3.1901 7.94632 3.1901C7.36632 3.1901 6.80565 3.4221 6.26432 3.8861L4.00232 6.1481C2.26232 7.8881 1.08299 9.98577 0.464319 12.4411C-0.154347 14.8964 -0.173681 17.5741 0.406319 20.4741C0.986319 23.3741 2.12699 26.2934 3.82832 29.2321C5.52965 32.1708 7.69499 34.9548 10.3243 37.5841C12.9537 40.2134 15.7377 42.3788 18.6763 44.0801C21.615 45.7814 24.5343 46.9028 27.4343 47.4441C28.6717 47.7148 30.0057 47.8501 31.4363 47.8501C33.4857 47.8501 35.3803 47.5214 37.1203 46.8641C38.8603 46.2068 40.3876 45.2208 41.7023 43.9061L43.9643 41.5861C44.4283 41.1608 44.6603 40.6001 44.6603 39.9041C44.6603 39.2081 44.4283 38.6668 43.9643 38.2801L35.5543 29.8121ZM7.48232 5.1041C7.59832 4.9881 7.75299 4.9301 7.94632 4.9301C8.13965 4.9301 8.29432 4.9881 8.41032 5.1041L16.8203 13.5141C16.9363 13.6688 16.9943 13.8331 16.9943 14.0071C16.9943 14.1811 16.9363 14.3261 16.8203 14.4421L15.1383 16.1241L5.80032 6.7861L7.48232 5.1041ZM42.7463 40.4261L41.1223 42.0501L31.7843 32.7121L33.4083 31.0301C33.5243 30.9141 33.679 30.8561 33.8723 30.8561C34.0657 30.8561 34.2203 30.9141 34.3363 31.0301L42.7463 39.4981C42.901 39.6141 42.9783 39.7591 42.9783 39.9331C42.9783 40.1071 42.901 40.2714 42.7463 40.4261Z" fill="#D7B65D"/>
</svg>
