<svg width="48" height="58" viewBox="0 0 48 58" fill="none" xmlns="http://www.w3.org/2000/svg">
<path d="M47.606 54.404L47.084 48.836C46.9294 46.9413 46.2237 45.269 44.967 43.819C43.7104 42.369 42.1347 41.4313 40.24 41.006L31.424 39.034L29.8 37.468C29.7227 36.424 29.742 35.5153 29.858 34.742L30.09 33.234C32.7967 30.682 34.15 28.3813 34.15 26.332V25.52C34.15 25.404 34.1307 25.3073 34.092 25.23C34.9427 25.0367 35.6484 24.6113 36.209 23.954C36.7697 23.2967 37.05 22.5233 37.05 21.634C37.1274 20.6287 36.7794 19.7587 36.006 19.024C35.774 18.7533 35.5034 18.5407 35.194 18.386C35.9674 17.6127 36.354 16.7427 36.354 15.776C36.354 15.4667 36.2767 15.0413 36.122 14.5C38.7514 12.76 40.066 10.846 40.066 8.758C40.066 6.902 39.1187 5.23933 37.224 3.77C37.0307 3.61533 36.8277 3.55733 36.615 3.596C36.4024 3.63467 36.2187 3.741 36.064 3.915C35.9094 4.089 35.8417 4.292 35.861 4.524C35.8804 4.756 35.9867 4.94933 36.18 5.104C37.6494 6.30267 38.384 7.52067 38.384 8.758C38.384 9.53133 38.0747 10.3143 37.456 11.107C36.8374 11.8997 35.948 12.6247 34.788 13.282H13.328C12.2454 12.6633 11.3947 11.948 10.776 11.136C10.1574 10.324 9.84805 9.53133 9.84805 8.758C9.84805 7.52067 10.5054 6.36067 11.82 5.278C13.1347 4.19534 14.894 3.32534 17.098 2.668C19.302 2.01067 21.6414 1.682 24.116 1.682C25.7787 1.682 27.4027 1.83667 28.988 2.146C30.5734 2.45533 32.004 2.88067 33.28 3.422C33.512 3.538 33.7344 3.55733 33.947 3.48C34.1597 3.40267 34.3144 3.248 34.411 3.016C34.5077 2.784 34.5077 2.56167 34.411 2.349C34.3144 2.13633 34.1694 1.972 33.976 1.856C32.584 1.23734 31.0374 0.773335 29.336 0.464001C27.6347 0.154667 25.8947 0 24.116 0C21.216 0 18.548 0.396336 16.112 1.189C13.676 1.98167 11.7427 3.045 10.312 4.379C8.88138 5.713 8.16605 7.17267 8.16605 8.758C8.16605 9.802 8.48505 10.8073 9.12305 11.774C9.76105 12.7407 10.6987 13.63 11.936 14.442C11.7427 14.906 11.646 15.3507 11.646 15.776C11.646 16.704 12.052 17.6127 12.864 18.502C12.7094 18.5793 12.4967 18.7533 12.226 19.024C11.4914 19.7587 11.1434 20.6287 11.182 21.634C11.182 22.5233 11.4624 23.2967 12.023 23.954C12.5837 24.6113 13.2894 25.0367 14.14 25.23C14.1014 25.3073 14.082 25.4233 14.082 25.578V26.332C14.082 28.3813 15.416 30.6627 18.084 33.176L18.316 34.684C18.4707 35.7667 18.49 36.714 18.374 37.526L16.808 38.976L7.76005 41.006C5.86538 41.4313 4.29938 42.3593 3.06205 43.79C1.82471 45.2207 1.10938 46.9027 0.916046 48.836L0.394046 54.404C0.316713 55.4093 0.606713 56.26 1.26405 56.956C1.53471 57.2653 1.89238 57.5167 2.33705 57.71C2.78171 57.9033 3.21671 58 3.64205 58H13.56C13.792 58 13.9854 57.913 14.14 57.739C14.2947 57.565 14.372 57.362 14.372 57.13C14.372 56.898 14.2947 56.7047 14.14 56.55C13.9854 56.3953 13.792 56.318 13.56 56.318H11.762V49.648C11.762 49.416 11.675 49.2227 11.501 49.068C11.327 48.9133 11.124 48.836 10.892 48.836C10.66 48.836 10.457 48.9133 10.283 49.068C10.109 49.2227 10.022 49.416 10.022 49.648V56.318H3.64205C3.21671 56.318 2.84938 56.1537 2.54005 55.825C2.23071 55.4963 2.07605 55.0807 2.07605 54.578L2.59805 49.01C2.75271 47.4247 3.33271 46.052 4.33805 44.892C5.34338 43.732 6.61938 42.9973 8.16605 42.688L16.634 40.716L18.084 45.936C18.1227 46.052 18.1904 46.1583 18.287 46.255C18.3837 46.3517 18.4804 46.4193 18.577 46.458C18.6737 46.4967 18.7994 46.516 18.954 46.516C19.1087 46.516 19.2634 46.458 19.418 46.342L21.274 45.008L21.912 46.632L19.302 56.318H17.504C17.272 56.318 17.069 56.3953 16.895 56.55C16.721 56.7047 16.634 56.898 16.634 57.13C16.634 57.362 16.721 57.565 16.895 57.739C17.069 57.913 17.272 58 17.504 58H44.358C44.7834 58 45.2184 57.9033 45.663 57.71C46.1077 57.5167 46.4654 57.2653 46.736 56.956C47.3934 56.26 47.6834 55.4093 47.606 54.404ZM25.508 41.876L28.93 38.976L30.09 40.02L28.872 44.254L25.508 41.876ZM24.116 40.774L20.114 37.352C20.1527 36.8107 20.1334 35.9987 20.056 34.916V34.858C21.216 35.786 22.5694 36.25 24.116 36.25C25.624 36.25 26.9774 35.8053 28.176 34.916C28.06 35.6507 28.0407 36.482 28.118 37.41L24.116 40.774ZM13.56 15.022H34.498C34.614 15.254 34.672 15.5053 34.672 15.776C34.672 16.5107 34.1984 17.226 33.251 17.922C32.3037 18.618 31.0374 19.1787 29.452 19.604C27.7507 20.068 25.9334 20.3 24 20.3C20.9067 20.3 18.316 19.778 16.228 18.734C15.3387 18.3473 14.633 17.8833 14.111 17.342C13.589 16.8007 13.328 16.2787 13.328 15.776C13.328 15.5827 13.4054 15.3313 13.56 15.022ZM35.368 21.634C35.368 22.0593 35.252 22.4363 35.02 22.765C34.788 23.0937 34.4594 23.3353 34.034 23.49C34.034 22.6393 34.0727 21.402 34.15 19.778C34.3434 19.8553 34.556 20.01 34.788 20.242C35.1747 20.59 35.368 21.054 35.368 21.634ZM12.864 21.634C12.864 21.054 13.0574 20.59 13.444 20.242C13.676 20.01 13.8887 19.8553 14.082 19.778C14.1594 21.402 14.198 22.6393 14.198 23.49C13.7727 23.3353 13.444 23.0937 13.212 22.765C12.98 22.4363 12.864 22.0593 12.864 21.634ZM15.764 26.332C15.764 26.1 15.764 25.8873 15.764 25.694C15.88 24.4953 15.8994 22.736 15.822 20.416C18.1034 21.46 20.8294 21.982 24 21.982C25.5854 21.982 27.1127 21.837 28.582 21.547C30.0514 21.257 31.3467 20.8413 32.468 20.3C32.352 22.504 32.352 24.302 32.468 25.694V26.332C32.468 27.26 32.0234 28.333 31.134 29.551C30.2447 30.769 28.9494 32.074 27.248 33.466C26.32 34.2007 25.276 34.568 24.116 34.568C22.956 34.568 21.912 34.2007 20.984 33.466C19.2827 32.074 17.9874 30.769 17.098 29.551C16.2087 28.333 15.764 27.26 15.764 26.332ZM19.36 44.254L18.142 40.02L19.302 38.918L22.782 41.876L19.36 44.254ZM24.116 42.978L25.566 43.964L24.87 45.762H23.362L22.724 43.964L24.116 42.978ZM21.1 56.318L23.478 47.444H24.812L27.19 56.318H21.1ZM45.518 55.796C45.2474 56.144 44.8607 56.318 44.358 56.318H37.978V49.648C37.978 49.416 37.891 49.2227 37.717 49.068C37.543 48.9133 37.34 48.836 37.108 48.836C36.876 48.836 36.673 48.9133 36.499 49.068C36.325 49.2227 36.238 49.416 36.238 49.648V56.318H28.93L26.32 46.632L26.958 45.008L28.872 46.342C28.988 46.458 29.133 46.516 29.307 46.516C29.481 46.516 29.5874 46.4967 29.626 46.458C29.8967 46.4193 30.09 46.226 30.206 45.878L31.598 40.774L39.892 42.688C41.4 42.9973 42.6567 43.732 43.662 44.892C44.6674 46.052 45.2474 47.4247 45.402 49.01L45.924 54.578C45.9627 55.0033 45.8274 55.4093 45.518 55.796ZM21.854 30.798H26.378C26.6487 30.798 26.8614 30.711 27.016 30.537C27.1707 30.363 27.248 30.16 27.248 29.928C27.248 29.696 27.1707 29.5027 27.016 29.348C26.8614 29.1933 26.6487 29.116 26.378 29.116H21.854C21.5834 29.116 21.3707 29.1933 21.216 29.348C21.0614 29.5027 20.984 29.696 20.984 29.928C20.984 30.16 21.0614 30.363 21.216 30.537C21.3707 30.711 21.5834 30.798 21.854 30.798ZM20.346 8.352V9.976C20.346 10.208 20.4234 10.4013 20.578 10.556C20.7327 10.7107 20.926 10.788 21.158 10.788C21.39 10.788 21.593 10.7107 21.767 10.556C21.941 10.4013 22.028 10.208 22.028 9.976V8.352C22.028 8.12 21.941 7.92667 21.767 7.772C21.593 7.61734 21.39 7.54 21.158 7.54C20.926 7.54 20.7327 7.61734 20.578 7.772C20.4234 7.92667 20.346 8.12 20.346 8.352ZM23.13 5.568V7.134C23.13 7.366 23.217 7.569 23.391 7.743C23.565 7.917 23.768 8.004 24 8.004C24.232 8.004 24.435 7.917 24.609 7.743C24.783 7.569 24.87 7.366 24.87 7.134V5.568C24.87 5.336 24.783 5.133 24.609 4.959C24.435 4.785 24.232 4.698 24 4.698C23.768 4.698 23.565 4.785 23.391 4.959C23.217 5.133 23.13 5.336 23.13 5.568ZM25.972 8.352V9.976C25.972 10.208 26.059 10.4013 26.233 10.556C26.407 10.7107 26.61 10.788 26.842 10.788C27.074 10.788 27.277 10.7107 27.451 10.556C27.625 10.4013 27.712 10.208 27.712 9.976V8.352C27.712 8.12 27.625 7.92667 27.451 7.772C27.277 7.61734 27.074 7.54 26.842 7.54C26.61 7.54 26.407 7.61734 26.233 7.772C26.059 7.92667 25.972 8.12 25.972 8.352ZM28.814 5.568V7.134C28.814 7.366 28.901 7.569 29.075 7.743C29.249 7.917 29.452 8.004 29.684 8.004C29.916 8.004 30.1094 7.917 30.264 7.743C30.4187 7.569 30.496 7.366 30.496 7.134V5.568C30.496 5.336 30.4187 5.133 30.264 4.959C30.1094 4.785 29.916 4.698 29.684 4.698C29.452 4.698 29.249 4.785 29.075 4.959C28.901 5.133 28.814 5.336 28.814 5.568ZM17.504 5.568V7.134C17.504 7.366 17.5814 7.569 17.736 7.743C17.8907 7.917 18.084 8.004 18.316 8.004C18.548 8.004 18.751 7.917 18.925 7.743C19.099 7.569 19.186 7.366 19.186 7.134V5.568C19.186 5.336 19.099 5.133 18.925 4.959C18.751 4.785 18.548 4.698 18.316 4.698C18.084 4.698 17.8907 4.785 17.736 4.959C17.5814 5.133 17.504 5.336 17.504 5.568Z" fill="#D7B65D"/>
</svg>
