<svg width="51" height="58" viewBox="0 0 51 58" fill="none" xmlns="http://www.w3.org/2000/svg">
<path d="M15.486 33.814C16.0273 33.814 16.4817 34.0073 16.849 34.394C17.2163 34.7807 17.4 35.2447 17.4 35.786C17.4 36.0567 17.4967 36.279 17.69 36.453C17.8833 36.627 18.1153 36.714 18.386 36.714C18.6567 36.714 18.879 36.627 19.053 36.453C19.227 36.279 19.314 36.0567 19.314 35.786C19.314 34.8967 19.053 34.104 18.531 33.408C18.009 32.712 17.3033 32.248 16.414 32.016V30.914C16.414 30.6433 16.327 30.421 16.153 30.247C15.979 30.073 15.7567 29.986 15.486 29.986C15.2153 29.986 14.9833 30.073 14.79 30.247C14.5967 30.421 14.5 30.6433 14.5 30.914V32.016C13.572 32.2867 12.8277 32.828 12.267 33.64C11.7063 34.452 11.4937 35.3317 11.629 36.279C11.7643 37.2263 12.1993 38.019 12.934 38.657C13.6687 39.295 14.5193 39.614 15.486 39.614C16.0273 39.614 16.4817 39.8073 16.849 40.194C17.2163 40.5807 17.4 41.035 17.4 41.557C17.4 42.079 17.2163 42.5333 16.849 42.92C16.4817 43.3067 16.0273 43.5 15.486 43.5C14.9447 43.5 14.4807 43.3163 14.094 42.949C13.7073 42.5817 13.514 42.1273 13.514 41.586C13.514 41.3153 13.427 41.0833 13.253 40.89C13.079 40.6967 12.8567 40.6 12.586 40.6C12.3153 40.6 12.0833 40.6967 11.89 40.89C11.6967 41.0833 11.6 41.3153 11.6 41.586C11.6 42.4367 11.8707 43.21 12.412 43.906C12.9533 44.602 13.6493 45.066 14.5 45.298V46.4C14.5 46.6707 14.5967 46.9027 14.79 47.096C14.9833 47.2893 15.2153 47.386 15.486 47.386C15.7567 47.386 15.979 47.2893 16.153 47.096C16.327 46.9027 16.414 46.6707 16.414 46.4V45.298C17.3807 45.066 18.1347 44.544 18.676 43.732C19.2173 42.92 19.43 42.0307 19.314 41.064C19.198 40.0973 18.7727 39.295 18.038 38.657C17.3033 38.019 16.4527 37.7 15.486 37.7C14.9447 37.7 14.4807 37.5163 14.094 37.149C13.7073 36.7817 13.514 36.3273 13.514 35.786C13.514 35.2447 13.7073 34.7807 14.094 34.394C14.4807 34.0073 14.9447 33.814 15.486 33.814ZM18.386 24.186H12.586C12.3153 24.186 12.0833 24.273 11.89 24.447C11.6967 24.621 11.6 24.8433 11.6 25.114C11.6 25.3847 11.6967 25.6167 11.89 25.81C12.0833 26.0033 12.3153 26.1 12.586 26.1H18.386C18.6567 26.1 18.879 26.0033 19.053 25.81C19.227 25.6167 19.314 25.3847 19.314 25.114C19.314 24.8433 19.227 24.621 19.053 24.447C18.879 24.273 18.6567 24.186 18.386 24.186ZM18.386 51.214H12.586C12.3153 51.214 12.0833 51.3107 11.89 51.504C11.6967 51.6973 11.6 51.9293 11.6 52.2C11.6 52.4707 11.6967 52.7027 11.89 52.896C12.0833 53.0893 12.3153 53.186 12.586 53.186H18.386C18.6567 53.186 18.879 53.0893 19.053 52.896C19.227 52.7027 19.314 52.4707 19.314 52.2C19.314 51.9293 19.227 51.6973 19.053 51.504C18.879 51.3107 18.6567 51.214 18.386 51.214ZM49.126 37.236L34.916 12.644C35.6893 11.8707 36.4627 10.904 37.236 9.744C38.0093 8.42934 38.4637 7.18233 38.599 6.003C38.7343 4.82367 38.5507 3.75067 38.048 2.784C37.3133 1.54667 36.134 0.715336 34.51 0.290001C32.886 -0.13533 31.0107 -0.125664 28.884 0.319C26.7573 0.763668 24.6113 1.60467 22.446 2.842C21.4407 3.46067 20.6093 4.04067 19.952 4.582L19.14 3.654C18.676 3.15134 18.125 2.755 17.487 2.465C16.849 2.175 16.1723 2.03 15.457 2.03C14.7417 2.03 14.065 2.175 13.427 2.465C12.789 2.755 12.238 3.15134 11.774 3.654L1.218 15.66C0.406 16.588 0 17.6707 0 18.908V49.3C0 50.8853 0.386667 52.345 1.16 53.679C1.93333 55.013 2.987 56.0667 4.321 56.84C5.655 57.6133 7.11467 58 8.7 58H22.214C23.7993 58 25.259 57.6133 26.593 56.84C27.927 56.0667 28.9807 55.013 29.754 53.679C30.5273 52.345 30.914 50.8853 30.914 49.3V18.908C30.914 17.9027 30.6627 17.0133 30.16 16.24C31.32 15.5827 32.422 14.8287 33.466 13.978L47.444 38.164C48.0627 39.2467 48.3623 40.3873 48.343 41.586C48.3237 42.7847 48.024 43.906 47.444 44.95C46.864 45.994 46.0327 46.8253 44.95 47.444L33.234 54.172C32.8473 54.4427 32.306 54.6747 31.61 54.868C31.3393 54.9067 31.1363 55.0517 31.001 55.303C30.8657 55.5543 30.8367 55.8057 30.914 56.057C30.9913 56.3083 31.1363 56.5017 31.349 56.637C31.5617 56.7723 31.8033 56.8013 32.074 56.724C32.8087 56.5693 33.524 56.2793 34.22 55.854L45.936 49.126C47.2893 48.314 48.343 47.241 49.097 45.907C49.851 44.573 50.2377 43.1327 50.257 41.586C50.2763 40.0393 49.8993 38.5893 49.126 37.236ZM29 49.3C29 50.5373 28.7003 51.6683 28.101 52.693C27.5017 53.7177 26.68 54.5393 25.636 55.158C24.592 55.7767 23.4513 56.086 22.214 56.086H8.7C7.50133 56.086 6.38 55.7767 5.336 55.158C4.292 54.5393 3.46067 53.708 2.842 52.664C2.22333 51.62 1.914 50.4987 1.914 49.3V18.908C1.914 18.1733 2.16533 17.516 2.668 16.936L13.224 4.93C13.804 4.27267 14.5483 3.944 15.457 3.944C16.3657 3.944 17.11 4.27267 17.69 4.93L27.144 15.66C24.9013 16.6653 22.6007 17.168 20.242 17.168C20.2807 17.0133 20.3 16.762 20.3 16.414C20.3 15.0607 19.836 13.92 18.908 12.992C17.98 12.064 16.8393 11.6 15.486 11.6C15.3313 11.6 15.2153 11.6193 15.138 11.658C14.906 11.6193 14.6933 11.6773 14.5 11.832C14.3067 11.9867 14.1713 12.18 14.094 12.412C13.746 13.804 13.92 15.0897 14.616 16.269C15.312 17.4483 16.24 18.212 17.4 18.56C16.9747 18.9467 16.4817 19.1883 15.921 19.285C15.3603 19.3817 14.819 19.314 14.297 19.082C13.775 18.85 13.3593 18.4923 13.05 18.009C12.7407 17.5257 12.586 16.994 12.586 16.414C12.586 16.1433 12.4893 15.921 12.296 15.747C12.1027 15.573 11.8707 15.486 11.6 15.486C11.3293 15.486 11.0973 15.573 10.904 15.747C10.7107 15.921 10.614 16.1433 10.614 16.414C10.614 17.4967 10.9427 18.4633 11.6 19.314C12.2573 20.1647 13.0983 20.7447 14.123 21.054C15.1477 21.3633 16.1627 21.3247 17.168 20.938C18.1733 20.5513 18.966 19.9133 19.546 19.024C19.778 19.0627 20.1453 19.082 20.648 19.082C23.4707 19.0047 26.0613 18.3667 28.42 17.168C28.8067 17.5933 29 18.1733 29 18.908V49.3ZM18.386 16.414C18.386 16.4527 18.386 16.53 18.386 16.646L18.328 16.878C17.4773 16.646 16.7813 16.1433 16.24 15.37C15.9693 14.79 15.8533 14.1907 15.892 13.572C16.588 13.688 17.1777 14.0167 17.661 14.558C18.1443 15.0993 18.386 15.718 18.386 16.414ZM29.232 14.558C29.0773 14.6353 28.9807 14.6933 28.942 14.732L21.228 6.032C21.8467 5.49067 22.5813 4.988 23.432 4.524C25.2107 3.48 26.999 2.74533 28.797 2.32C30.595 1.89467 32.1803 1.80767 33.553 2.059C34.9257 2.31033 35.8633 2.88067 36.366 3.77C36.714 4.38867 36.8203 5.133 36.685 6.003C36.5497 6.873 36.1727 7.79134 35.554 8.758C35.09 9.49267 34.5487 10.208 33.93 10.904H33.872C33.2533 9.78267 32.364 9.048 31.204 8.7L27.434 7.424C27.1633 7.34667 26.912 7.366 26.68 7.482C26.448 7.598 26.2933 7.78167 26.216 8.033C26.1387 8.28434 26.158 8.526 26.274 8.758C26.39 8.99 26.564 9.14467 26.796 9.222L30.624 10.498C31.2813 10.73 31.8227 11.1747 32.248 11.832L32.48 12.296C31.4747 13.1467 30.392 13.9007 29.232 14.558ZM33.002 38.976C33.1567 39.208 33.3597 39.353 33.611 39.411C33.8623 39.469 34.104 39.44 34.336 39.324L41.006 35.438C41.354 35.2447 41.528 34.9643 41.528 34.597C41.528 34.2297 41.3637 33.9493 41.035 33.756C40.7063 33.5627 40.3873 33.5627 40.078 33.756L33.35 37.642C33.118 37.7967 32.9633 37.9997 32.886 38.251C32.8087 38.5023 32.8473 38.744 33.002 38.976ZM34.22 44.95C34.3747 45.182 34.5777 45.3367 34.829 45.414C35.0803 45.4913 35.322 45.4527 35.554 45.298L43.906 40.484C44.138 40.3293 44.2927 40.1263 44.37 39.875C44.4473 39.6237 44.4183 39.382 44.283 39.15C44.1477 38.918 43.9447 38.7633 43.674 38.686C43.4033 38.6087 43.152 38.6473 42.92 38.802L34.568 43.616C34.336 43.7707 34.1813 43.9737 34.104 44.225C34.0267 44.4763 34.0653 44.718 34.22 44.95ZM34.742 33.35C34.9353 33.35 35.1093 33.292 35.264 33.176L38.628 31.262C38.9373 31.0687 39.092 30.7883 39.092 30.421C39.092 30.0537 38.9277 29.7733 38.599 29.58C38.2703 29.3867 37.9513 29.3867 37.642 29.58L34.278 31.494C34.0847 31.61 33.9493 31.7743 33.872 31.987C33.7947 32.1997 33.7753 32.4123 33.814 32.625C33.8527 32.8377 33.9687 33.0117 34.162 33.147C34.3553 33.2823 34.5487 33.35 34.742 33.35Z" fill="#D7B65D"/>
</svg>
