<svg width="57" height="57" viewBox="0 0 57 57" fill="none" xmlns="http://www.w3.org/2000/svg">
<path d="M47.676 40.02C48.488 38.396 48.894 36.656 48.894 34.8C48.894 31.9387 48.5847 29.2514 47.966 26.738L45.936 17.98C45.6653 16.936 45.124 16.095 44.312 15.457C43.5 14.819 42.572 14.5 41.528 14.5H40.716C40.2907 13.92 39.7687 13.4754 39.15 13.166C38.5313 12.8567 37.8547 12.702 37.12 12.702H34.394V10.846H35.322C36.0953 10.846 36.743 10.5754 37.265 10.034C37.787 9.49271 38.048 8.85471 38.048 8.12004V2.66805C38.048 1.93338 37.7773 1.30505 37.236 0.783043C36.6947 0.261044 36.0567 4.57764e-05 35.322 4.57764e-05H20.822C20.0873 4.57764e-05 19.4493 0.261044 18.908 0.783043C18.3667 1.30505 18.096 1.93338 18.096 2.66805V8.12004C18.096 8.85471 18.3667 9.49271 18.908 10.034C19.4493 10.5754 20.0873 10.846 20.822 10.846H21.75V12.644H19.024C18.2893 12.644 17.6127 12.8084 16.994 13.137C16.3753 13.4657 15.8533 13.92 15.428 14.5H14.616C13.572 14.5 12.6343 14.819 11.803 15.457C10.9717 16.095 10.44 16.936 10.208 17.98L8.178 26.68C7.55933 29.2707 7.25 31.958 7.25 34.742C7.25 36.6367 7.656 38.396 8.468 40.02C7.076 40.368 5.916 41.1414 4.988 42.34C4.06 43.5387 3.596 44.892 3.596 46.4V48.778C3.596 49.6287 3.73133 50.402 4.002 51.098C4.50467 52.606 5.40367 53.824 6.699 54.752C7.99433 55.68 9.43467 56.144 11.02 56.144H45.124C46.7093 56.144 48.1497 55.68 49.445 54.752C50.7403 53.824 51.6393 52.606 52.142 51.098C52.4127 50.402 52.548 49.6287 52.548 48.778V46.4C52.548 44.892 52.084 43.5387 51.156 42.34C50.228 41.1414 49.068 40.368 47.676 40.02ZM19.894 8.12004V2.66805C19.894 2.43604 19.981 2.23304 20.155 2.05904C20.329 1.88504 20.5513 1.79805 20.822 1.79805H35.322C35.5927 1.79805 35.815 1.88504 35.989 2.05904C36.163 2.23304 36.25 2.43604 36.25 2.66805V8.12004C36.25 8.39071 36.163 8.61304 35.989 8.78704C35.815 8.96104 35.5927 9.04805 35.322 9.04805H20.822C20.5513 9.04805 20.329 8.96104 20.155 8.78704C19.981 8.61304 19.894 8.39071 19.894 8.12004ZM23.548 10.846H32.596V12.644H23.548V10.846ZM9.918 27.144L12.006 18.386C12.122 17.7674 12.4217 17.2647 12.905 16.878C13.3883 16.4914 13.9393 16.298 14.558 16.298C14.4807 16.6847 14.442 16.9747 14.442 17.168V21.75H16.298V17.168C16.298 16.4334 16.5687 15.805 17.11 15.283C17.6513 14.761 18.2893 14.5 19.024 14.5H37.12C37.8547 14.5 38.4927 14.761 39.034 15.283C39.5753 15.805 39.846 16.4334 39.846 17.168V21.75H41.644V17.168C41.644 16.7814 41.6247 16.4914 41.586 16.298C42.2047 16.298 42.746 16.4914 43.21 16.878C43.674 17.2647 43.9833 17.7674 44.138 18.386L46.226 27.144C46.806 29.6187 47.096 32.1514 47.096 34.742C47.096 36.5594 46.6127 38.2607 45.646 39.846C44.0607 40.0394 42.7653 40.6387 41.76 41.644C40.6387 42.7654 40.02 44.0414 39.904 45.472C38.8987 44.892 37.9127 44.4474 36.946 44.138C36.4433 40.6967 36.192 37.4294 36.192 34.336V16.298H34.394V34.336C34.394 37.468 34.626 40.5807 35.09 43.674H34.916C33.872 43.5194 33.0987 43.442 32.596 43.442H23.548C22.968 43.442 22.1367 43.5194 21.054 43.674C21.4793 40.4647 21.692 37.352 21.692 34.336V16.298H19.894V34.336C19.894 37.7387 19.6427 41.006 19.14 44.138C17.98 44.5634 17.0133 45.008 16.24 45.472C16.0467 43.964 15.428 42.6977 14.384 41.673C13.34 40.6484 12.0253 40.0394 10.44 39.846C9.512 38.222 9.048 36.54 9.048 34.8C9.048 32.1707 9.338 29.6187 9.918 27.144ZM50.75 48.778C50.75 49.358 50.6533 49.938 50.46 50.518C50.0733 51.678 49.3967 52.606 48.43 53.302C47.4633 53.998 46.3613 54.346 45.124 54.346H11.02C9.82133 54.346 8.73867 53.998 7.772 53.302C6.80533 52.606 6.10933 51.678 5.684 50.518C5.49067 49.938 5.394 49.358 5.394 48.778V46.4C5.394 45.124 5.829 44.022 6.699 43.094C7.569 42.166 8.60333 41.6827 9.802 41.644C10.4207 41.644 11.02 41.76 11.6 41.992C12.18 42.224 12.6827 42.5334 13.108 42.92C14.036 43.848 14.5 44.9307 14.5 46.168V48.024C14.5 49.2614 14.9447 50.3247 15.834 51.214C16.7233 52.1034 17.7867 52.548 19.024 52.548H20.822V50.75H19.024C18.2893 50.75 17.6513 50.4794 17.11 49.938C16.5687 49.3967 16.298 48.7587 16.298 48.024V47.56C18.4633 46.052 20.88 45.298 23.548 45.298H32.596C35.264 45.298 37.6807 46.052 39.846 47.56V48.024C39.846 48.7587 39.585 49.3967 39.063 49.938C38.541 50.4794 37.8933 50.75 37.12 50.75H35.322V52.548H37.12C38.3573 52.548 39.4207 52.1034 40.31 51.214C41.1993 50.3247 41.644 49.2614 41.644 48.024V46.168C41.644 44.9307 42.108 43.848 43.036 42.92C43.4613 42.5334 43.964 42.224 44.544 41.992C45.124 41.76 45.7233 41.644 46.342 41.644C47.5407 41.6827 48.575 42.166 49.445 43.094C50.315 44.022 50.75 45.124 50.75 46.4V48.778ZM55.274 4.52404C54.2687 4.52404 53.4083 4.16638 52.693 3.45105C51.9777 2.73571 51.62 1.87538 51.62 0.870045C51.62 0.638046 51.533 0.435043 51.359 0.261044C51.185 0.0870438 50.982 4.57764e-05 50.75 4.57764e-05C50.518 4.57764e-05 50.3053 0.0870438 50.112 0.261044C49.9187 0.435043 49.822 0.638046 49.822 0.870045C49.822 1.87538 49.474 2.73571 48.778 3.45105C48.082 4.16638 47.2313 4.52404 46.226 4.52404C45.9553 4.52404 45.733 4.61105 45.559 4.78505C45.385 4.95905 45.298 5.16204 45.298 5.39404C45.298 5.62605 45.385 5.83871 45.559 6.03204C45.733 6.22538 45.9553 6.32204 46.226 6.32204C47.2313 6.32204 48.082 6.67004 48.778 7.36604C49.474 8.06205 49.822 8.91271 49.822 9.91805C49.822 10.1887 49.909 10.411 50.083 10.585C50.257 10.759 50.4793 10.846 50.75 10.846C51.0207 10.846 51.2333 10.759 51.388 10.585C51.5427 10.411 51.62 10.1887 51.62 9.91805C51.62 8.91271 51.9777 8.06205 52.693 7.36604C53.4083 6.67004 54.2687 6.32204 55.274 6.32204C55.506 6.32204 55.709 6.23504 55.883 6.06104C56.057 5.88704 56.144 5.66471 56.144 5.39404C56.144 5.12338 56.057 4.91071 55.883 4.75605C55.709 4.60138 55.506 4.52404 55.274 4.52404ZM50.75 6.96004C50.3633 6.30271 49.8413 5.78071 49.184 5.39404C49.8027 5.00738 50.3247 4.50471 50.75 3.88604C51.1753 4.46605 51.678 4.96871 52.258 5.39404C51.6393 5.81938 51.1367 6.34138 50.75 6.96004ZM5.394 19.024C5.66467 19.024 5.887 18.937 6.061 18.763C6.235 18.589 6.322 18.3667 6.322 18.096C6.322 17.0907 6.67967 16.24 7.395 15.544C8.11033 14.848 8.97067 14.5 9.976 14.5C10.208 14.5 10.411 14.413 10.585 14.239C10.759 14.065 10.846 13.8427 10.846 13.572C10.846 13.3014 10.759 13.079 10.585 12.905C10.411 12.731 10.208 12.644 9.976 12.644C8.97067 12.644 8.11033 12.296 7.395 11.6C6.67967 10.904 6.322 10.0534 6.322 9.04805C6.322 8.77738 6.235 8.55505 6.061 8.38104C5.887 8.20704 5.66467 8.12004 5.394 8.12004C5.12333 8.12004 4.91067 8.20704 4.756 8.38104C4.60133 8.55505 4.524 8.77738 4.524 9.04805C4.524 10.0534 4.16633 10.904 3.451 11.6C2.73567 12.296 1.87533 12.644 0.87 12.644C0.638 12.644 0.435 12.731 0.261 12.905C0.087 13.079 0 13.3014 0 13.572C0 13.8427 0.087 14.065 0.261 14.239C0.435 14.413 0.638 14.5 0.87 14.5C1.87533 14.5 2.73567 14.848 3.451 15.544C4.16633 16.24 4.524 17.0907 4.524 18.096C4.524 18.3667 4.611 18.589 4.785 18.763C4.959 18.937 5.162 19.024 5.394 19.024ZM5.394 12.064C5.81933 12.6827 6.34133 13.1854 6.96 13.572C6.34133 13.9587 5.81933 14.4614 5.394 15.08C4.96867 14.5 4.466 13.9974 3.886 13.572C4.466 13.1467 4.96867 12.644 5.394 12.064Z" fill="#D7B65D"/>
</svg>
