<svg width="58" height="38" viewBox="0 0 58 38" fill="none" xmlns="http://www.w3.org/2000/svg">
<path d="M54.578 23.8722L54.114 16.9122C53.998 15.7135 53.65 14.5922 53.07 13.5482V13.4902C52.4127 12.3302 51.446 11.3635 50.17 10.5902L51.098 9.72017C51.562 9.87483 51.91 9.95217 52.142 9.95217H55.216C55.9893 9.95217 56.6467 9.6815 57.188 9.14017C57.7293 8.59883 58 7.9415 58 7.16817C58 6.39483 57.7293 5.7375 57.188 5.19616C56.6467 4.65483 55.9893 4.38417 55.216 4.38417H52.548C51.7747 4.38417 51.1173 4.65483 50.576 5.19616C50.0347 5.7375 49.764 6.39483 49.764 7.16817V7.57417C49.764 7.8835 49.822 8.19283 49.938 8.50216L49.184 9.14017L46.748 4.79016C46.0133 3.43683 44.9887 2.36383 43.674 1.57117C42.3593 0.7785 40.9093 0.382164 39.324 0.382164H18.676C17.1293 0.382164 15.689 0.7785 14.355 1.57117C13.021 2.36383 11.9867 3.43683 11.252 4.79016L8.816 9.14017L8.062 8.50216C8.178 8.19283 8.236 7.8835 8.236 7.57417V7.16817C8.236 6.39483 7.96533 5.7375 7.424 5.19616C6.88267 4.65483 6.22533 4.38417 5.452 4.38417H2.784C2.01067 4.38417 1.35333 4.65483 0.812 5.19616C0.270667 5.7375 0 6.39483 0 7.16817C0 7.9415 0.270667 8.59883 0.812 9.14017C1.35333 9.6815 2.01067 9.95217 2.784 9.95217H5.858C6.09 9.95217 6.438 9.87483 6.902 9.72017L7.83 10.5902C6.554 11.3635 5.58733 12.3302 4.93 13.4902V13.5482C4.31133 14.5535 3.98267 15.6362 3.944 16.7962L3.712 19.5222C3.55733 21.5328 3.46067 22.9828 3.422 23.8722C2.61 24.1815 1.95267 24.7035 1.45 25.4382C0.947333 26.1728 0.696 27.0042 0.696 27.9322C0.696 28.9762 1.02467 29.8945 1.682 30.6872C2.33933 31.4798 3.17067 31.9728 4.176 32.1662V35.1242C4.176 35.8202 4.42733 36.4098 4.93 36.8932C5.43267 37.3765 6.01267 37.6182 6.67 37.6182H11.484C12.18 37.6182 12.7697 37.3765 13.253 36.8932C13.7363 36.4098 13.978 35.8202 13.978 35.1242V32.2822H37.352C37.584 32.2822 37.7773 32.1952 37.932 32.0212C38.0867 31.8472 38.164 31.6442 38.164 31.4122C38.164 31.1802 38.0867 30.9772 37.932 30.8032C37.7773 30.6292 37.584 30.5422 37.352 30.5422H4.988C4.25333 30.5422 3.63467 30.2908 3.132 29.7882C2.62933 29.2855 2.378 28.6668 2.378 27.9322C2.378 27.1975 2.62933 26.5692 3.132 26.0472C3.63467 25.5252 4.25333 25.2642 4.988 25.2642H14.79C15.6793 26.3468 16.762 27.1878 18.038 27.7872C19.314 28.3865 20.6867 28.6862 22.156 28.6862H35.844C37.3133 28.6862 38.686 28.3865 39.962 27.7872C41.238 27.1878 42.34 26.3468 43.268 25.2642H53.012C53.7467 25.2642 54.3653 25.5252 54.868 26.0472C55.3707 26.5692 55.622 27.1975 55.622 27.9322C55.622 28.6668 55.3707 29.2855 54.868 29.7882C54.3653 30.2908 53.7467 30.5422 53.012 30.5422H41.296C41.064 30.5422 40.861 30.6292 40.687 30.8032C40.513 30.9772 40.426 31.1802 40.426 31.4122C40.426 31.6442 40.513 31.8472 40.687 32.0212C40.861 32.1952 41.064 32.2822 41.296 32.2822H44.022V35.1242C44.022 35.8202 44.2637 36.4098 44.747 36.8932C45.2303 37.3765 45.82 37.6182 46.516 37.6182H51.33C51.9873 37.6182 52.5673 37.3765 53.07 36.8932C53.5727 36.4098 53.824 35.8202 53.824 35.1242V32.1662C54.8293 31.9728 55.6703 31.4798 56.347 30.6872C57.0237 29.8945 57.362 28.9762 57.362 27.9322C57.362 27.0042 57.101 26.1728 56.579 25.4382C56.057 24.7035 55.39 24.1815 54.578 23.8722ZM12.296 35.1242C12.296 35.3175 12.2187 35.5012 12.064 35.6752C11.9093 35.8492 11.716 35.9362 11.484 35.9362H6.67C6.47667 35.9362 6.30267 35.8492 6.148 35.6752C5.99333 35.5012 5.916 35.3175 5.916 35.1242V32.2822H12.296V35.1242ZM51.794 14.7662C52.1033 15.4235 52.2967 16.1775 52.374 17.0282L52.606 19.9862H45.414L45.298 19.9282V19.8122L46.632 14.7662C46.632 14.7662 46.6513 14.7662 46.69 14.7662H51.794ZM51.446 7.16817C51.446 6.85883 51.5523 6.59783 51.765 6.38516C51.9777 6.1725 52.2387 6.06617 52.548 6.06617H55.216C55.5253 6.06617 55.7863 6.1725 55.999 6.38516C56.2117 6.59783 56.318 6.84916 56.318 7.13917C56.318 7.42916 56.2117 7.69016 55.999 7.92216C55.7863 8.15417 55.5253 8.27016 55.216 8.27016H52.142C51.9487 8.27016 51.7843 8.2025 51.649 8.06717C51.5137 7.93183 51.446 7.7675 51.446 7.57417V7.16817ZM2.784 8.27016C2.51333 8.27016 2.262 8.15417 2.03 7.92216C1.798 7.69016 1.682 7.42916 1.682 7.13917C1.682 6.84916 1.798 6.59783 2.03 6.38516C2.262 6.1725 2.51333 6.06617 2.784 6.06617H5.452C5.76133 6.06617 6.02233 6.1725 6.235 6.38516C6.44767 6.59783 6.554 6.85883 6.554 7.16817V7.57417C6.554 7.7675 6.48633 7.93183 6.351 8.06717C6.21567 8.2025 6.05133 8.27016 5.858 8.27016H2.784ZM5.51 18.0142C5.54867 17.6662 5.58733 17.3182 5.626 16.9702C5.70333 16.1582 5.89667 15.4235 6.206 14.7662H10.556L10.672 14.8242L11.948 19.8122C11.9867 19.8508 11.9867 19.8895 11.948 19.9282L11.832 19.9862H5.394V19.7542C5.47133 18.9035 5.51 18.3235 5.51 18.0142ZM42.862 23.5822C42.5913 23.5822 42.3593 23.6982 42.166 23.9302C41.4313 24.8968 40.5033 25.6508 39.382 26.1922C38.2607 26.7335 37.0813 27.0042 35.844 27.0042H22.156C20.9187 27.0042 19.7393 26.7335 18.618 26.1922C17.4967 25.6508 16.5687 24.8968 15.834 23.9302C15.6793 23.6982 15.4667 23.5822 15.196 23.5822H5.104L5.278 21.6682H11.832C12.4507 21.6682 12.934 21.4362 13.282 20.9722C13.63 20.5082 13.746 19.9668 13.63 19.3482L12.296 14.4182C12.18 14.0315 11.9673 13.7125 11.658 13.4612C11.3487 13.2098 10.9813 13.0842 10.556 13.0842H7.366C7.946 12.4655 8.642 11.9822 9.454 11.6342C10.266 11.2862 11.0973 11.1122 11.948 11.1122H21.692C21.924 11.1122 22.1173 11.0348 22.272 10.8802C22.4267 10.7255 22.504 10.5322 22.504 10.3002C22.504 10.0682 22.4267 9.86517 22.272 9.69116C22.1173 9.51716 21.924 9.43016 21.692 9.43016H11.948C11.6387 9.43016 11.1747 9.46883 10.556 9.54617L12.702 5.60217C13.3207 4.5195 14.1617 3.65916 15.225 3.02116C16.2883 2.38316 17.4387 2.06416 18.676 2.06416H39.324C40.5613 2.06416 41.7117 2.38316 42.775 3.02116C43.8383 3.65916 44.6793 4.5195 45.298 5.60217L47.444 9.54617C46.8253 9.46883 46.3613 9.43016 46.052 9.43016H25.636C25.404 9.43016 25.201 9.51716 25.027 9.69116C24.853 9.86517 24.766 10.0682 24.766 10.3002C24.766 10.5322 24.853 10.7255 25.027 10.8802C25.201 11.0348 25.404 11.1122 25.636 11.1122H46.052C46.9027 11.1122 47.734 11.2862 48.546 11.6342C49.358 11.9822 50.054 12.4655 50.634 13.0842H46.69C46.2647 13.0842 45.8973 13.2098 45.588 13.4612C45.2787 13.7125 45.066 14.0315 44.95 14.4182L43.616 19.3482C43.5 19.9668 43.616 20.5082 43.964 20.9722C44.312 21.4362 44.7953 21.6682 45.414 21.6682H52.722L52.896 23.5822H42.862ZM51.33 35.9362H46.516C46.3227 35.9362 46.139 35.8492 45.965 35.6752C45.791 35.5012 45.704 35.3175 45.704 35.1242V32.2822H52.084V35.1242C52.084 35.3175 52.0067 35.5012 51.852 35.6752C51.6973 35.8492 51.5233 35.9362 51.33 35.9362ZM40.368 13.0842H17.632C16.8587 13.0842 16.24 13.3742 15.776 13.9542C15.312 14.5342 15.138 15.1722 15.254 15.8682L15.95 20.0442C16.2207 21.5522 16.936 22.7992 18.096 23.7852C19.256 24.7712 20.6093 25.2642 22.156 25.2642H35.844C37.3907 25.2642 38.744 24.7712 39.904 23.7852C41.064 22.7992 41.7793 21.5522 42.05 20.0442L42.746 15.8682C42.862 15.1335 42.688 14.4858 42.224 13.9252C41.76 13.3645 41.1413 13.0842 40.368 13.0842ZM28.014 14.7662H30.044V23.5822H28.014V14.7662ZM26.274 23.5822H24.244V14.7662H26.274V23.5822ZM31.726 14.7662H33.756V23.5822H31.726V14.7662ZM17.632 19.7542L16.936 15.5782C16.8973 15.3075 16.9553 15.1335 17.11 15.0562C17.226 14.8628 17.4 14.7662 17.632 14.7662H18.85V22.1902C18.2313 21.5328 17.8253 20.7208 17.632 19.7542ZM20.532 23.2922V14.7662H22.562V23.5822H22.156C21.6533 23.5822 21.112 23.4855 20.532 23.2922ZM35.438 23.5822V14.7662H37.468V23.2922C36.888 23.4855 36.3467 23.5822 35.844 23.5822H35.438ZM41.064 15.5782L40.368 19.7542C40.2133 20.7208 39.8073 21.5328 39.15 22.1902V14.7662H40.368C40.6387 14.7662 40.8127 14.8628 40.89 15.0562C41.0447 15.1335 41.1027 15.3075 41.064 15.5782Z" fill="#D7B65D"/>
</svg>
