<svg width="195" height="17" viewBox="0 0 195 17" fill="none" xmlns="http://www.w3.org/2000/svg">
<path d="M13.2685 11.952L12.8725 16H0.640547V15.318H1.27855C1.70388 15.318 2.01921 15.2593 2.22455 15.142C2.44455 15.01 2.55455 14.8047 2.55455 14.526V2.096C2.55455 1.55333 2.12921 1.282 1.27855 1.282H0.640547V0.599999H12.8945V4.538H12.2125C12.0659 2.58733 11.3839 1.612 10.1665 1.612H5.19455V7.42H8.84655C9.28655 7.42 9.57255 7.25133 9.70455 6.914C9.85121 6.562 9.95388 6.034 10.0125 5.33H10.6065V10.522H10.0125C9.95388 9.818 9.85121 9.29733 9.70455 8.96C9.57255 8.608 9.28655 8.432 8.84655 8.432H5.19455V14.988H10.5625C11.6772 14.988 12.3519 13.976 12.5865 11.952H13.2685ZM14.5451 15.318H15.1831C15.6084 15.318 15.9237 15.2593 16.1291 15.142C16.3491 15.01 16.4591 14.8047 16.4591 14.526V2.096C16.4591 1.55333 16.0337 1.282 15.1831 1.282H14.5451V0.599999H21.0131V1.282H20.3531C19.5171 1.282 19.0991 1.55333 19.0991 2.096V14.042C19.0991 14.6727 19.5391 14.988 20.4191 14.988H24.4891C25.1051 14.988 25.5744 14.6287 25.8971 13.91C26.2344 13.1913 26.4471 12.4727 26.5351 11.754H27.2611L26.8651 16H14.5451V15.318ZM28.2311 15.318H28.8911C29.7271 15.318 30.1451 15.054 30.1451 14.526V2.096C30.1451 1.55333 29.7271 1.282 28.8911 1.282H28.2311V0.599999H34.6991V1.282H34.0611C33.2105 1.282 32.7851 1.55333 32.7851 2.096V14.526C32.7851 14.8047 32.8878 15.01 33.0931 15.142C33.3131 15.2593 33.6358 15.318 34.0611 15.318H34.6991V16H28.2311V15.318ZM39.4241 15.318H40.0621C40.4875 15.318 40.8028 15.2593 41.0081 15.142C41.2281 15.01 41.3381 14.8047 41.3381 14.526V1.612H38.3241C37.7375 1.612 37.3195 2.008 37.0701 2.8C36.8355 3.57733 36.7108 4.34 36.6961 5.088H36.0141V0.599999H49.3021V5.088H48.5981C48.5835 4.34 48.4515 3.57733 48.2021 2.8C47.9675 2.008 47.5568 1.612 46.9701 1.612H43.9781V14.526C43.9781 15.054 44.3961 15.318 45.2321 15.318H45.8921V16H39.4241V15.318ZM63.0264 11.952L62.6304 16H50.3984V15.318H51.0364C51.4617 15.318 51.777 15.2593 51.9824 15.142C52.2024 15.01 52.3124 14.8047 52.3124 14.526V2.096C52.3124 1.55333 51.887 1.282 51.0364 1.282H50.3984V0.599999H62.6524V4.538H61.9704C61.8237 2.58733 61.1417 1.612 59.9244 1.612H54.9524V7.42H58.6044C59.0444 7.42 59.3304 7.25133 59.4624 6.914C59.609 6.562 59.7117 6.034 59.7704 5.33H60.3644V10.522H59.7704C59.7117 9.818 59.609 9.29733 59.4624 8.96C59.3304 8.608 59.0444 8.432 58.6044 8.432H54.9524V14.988H60.3204C61.435 14.988 62.1097 13.976 62.3444 11.952H63.0264ZM157.341 16.22C154.936 16.22 153.095 15.5233 151.819 14.13C150.543 12.7367 149.905 10.7933 149.905 8.3C149.905 6.672 150.199 5.264 150.785 4.076C151.372 2.888 152.223 1.97867 153.337 1.348C154.467 0.702666 155.831 0.379999 157.429 0.379999C158.383 0.379999 159.219 0.511999 159.937 0.775999C160.671 1.02533 161.287 1.326 161.785 1.678C161.8 1.678 161.829 1.69267 161.873 1.722C161.917 1.75133 161.954 1.766 161.983 1.766C162.115 1.766 162.181 1.66333 162.181 1.458V0.489999H163.105V4.824H162.335C162.203 3.724 161.727 2.888 160.905 2.316C160.099 1.72933 159.123 1.436 157.979 1.436C156.263 1.436 154.929 2.052 153.975 3.284C153.037 4.516 152.567 6.188 152.567 8.3C152.567 10.456 153 12.1427 153.865 13.36C154.731 14.5773 156.014 15.186 157.715 15.186C158.742 15.186 159.688 14.9513 160.553 14.482C161.433 13.998 162.057 13.2427 162.423 12.216H163.413C163.149 13.4333 162.475 14.4087 161.389 15.142C160.304 15.8607 158.955 16.22 157.341 16.22ZM180.52 15.318V16H174.492V15.318H174.888C175.24 15.318 175.489 15.2667 175.636 15.164C175.797 15.0613 175.878 14.9073 175.878 14.702C175.878 14.5113 175.805 14.2107 175.658 13.8L174.822 11.534H168.772L167.76 14.24C167.716 14.372 167.694 14.482 167.694 14.57C167.694 14.8047 167.797 14.988 168.002 15.12C168.207 15.252 168.457 15.318 168.75 15.318H169.168V16H164.196V15.318H164.526C164.834 15.318 165.135 15.2447 165.428 15.098C165.736 14.9513 165.934 14.7607 166.022 14.526L171.258 0.973999L173.216 0.226L178.782 14.548C178.885 14.7973 179.061 14.988 179.31 15.12C179.559 15.252 179.823 15.318 180.102 15.318H180.52ZM174.448 10.522L171.83 3.35L169.146 10.522H174.448ZM192.509 12.128C192.7 12.8173 192.883 13.3747 193.059 13.8C193.235 14.2107 193.477 14.5627 193.785 14.856C194.093 15.1493 194.496 15.3033 194.995 15.318V16H192.949C192.172 16 191.578 15.8167 191.167 15.45C190.756 15.0833 190.434 14.5187 190.199 13.756C190.067 13.272 189.964 12.8613 189.891 12.524C189.73 11.776 189.568 11.182 189.407 10.742C189.246 10.2873 188.996 9.92067 188.659 9.642H185.623V14.526C185.623 15.054 186.041 15.318 186.877 15.318H187.537V16H181.069V15.318H181.707C182.132 15.318 182.448 15.2593 182.653 15.142C182.873 15.01 182.983 14.8047 182.983 14.526V2.096C182.983 1.55333 182.558 1.282 181.707 1.282H181.069V0.599999H188.835C190.58 0.599999 191.834 0.988666 192.597 1.766C193.36 2.54333 193.741 3.658 193.741 5.11C193.741 6.254 193.514 7.19267 193.059 7.926C192.604 8.64467 191.864 9.14333 190.837 9.422C191.306 9.67133 191.644 10.0087 191.849 10.434C192.069 10.8447 192.289 11.4093 192.509 12.128ZM185.623 8.63H188.263C189.26 8.63 189.986 8.33667 190.441 7.75C190.91 7.14867 191.145 6.26867 191.145 5.11C191.145 3.95133 190.91 3.07867 190.441 2.492C189.986 1.90533 189.26 1.612 188.263 1.612H185.623V8.63Z" fill="black"/>
<path d="M69.8857 15.318H70.5237C70.9491 15.318 71.2644 15.2593 71.4697 15.142C71.6897 15.01 71.7997 14.8047 71.7997 14.526V2.096C71.7997 1.55333 71.3744 1.282 70.5237 1.282H69.8857V0.599999H76.9477C80.2037 0.599999 81.8317 1.81733 81.8317 4.252C81.8317 5.10267 81.5824 5.858 81.0837 6.518C80.5851 7.178 79.8811 7.62533 78.9717 7.86V7.904C80.3504 8.10933 81.3184 8.57867 81.8757 9.312C82.4477 10.0453 82.7337 10.8813 82.7337 11.82C82.7337 13.1547 82.3084 14.1887 81.4577 14.922C80.6217 15.6407 79.3604 16 77.6737 16H69.8857V15.318ZM76.3757 7.442C77.2557 7.442 77.9451 7.156 78.4437 6.584C78.9571 6.012 79.2137 5.264 79.2137 4.34C79.2137 3.40133 78.9571 2.712 78.4437 2.272C77.9451 1.832 77.1824 1.612 76.1557 1.612H74.4397V7.442H76.3757ZM76.7057 14.988C77.8497 14.988 78.7077 14.7093 79.2797 14.152C79.8517 13.58 80.1377 12.7587 80.1377 11.688C80.1377 10.5587 79.8297 9.73733 79.2137 9.224C78.5977 8.696 77.6224 8.432 76.2877 8.432H74.4397V14.988H76.7057ZM83.8322 15.318H84.4702C84.8955 15.318 85.2108 15.2593 85.4162 15.142C85.6362 15.01 85.7462 14.8047 85.7462 14.526V2.096C85.7462 1.55333 85.3208 1.282 84.4702 1.282H83.8322V0.599999H90.3002V1.282H89.6402C88.8042 1.282 88.3862 1.55333 88.3862 2.096V14.042C88.3862 14.6727 88.8262 14.988 89.7062 14.988H93.7762C94.3922 14.988 94.8615 14.6287 95.1842 13.91C95.5215 13.1913 95.7342 12.4727 95.8222 11.754H96.5482L96.1522 16H83.8322V15.318ZM113.424 15.318V16H107.396V15.318H107.792C108.144 15.318 108.394 15.2667 108.54 15.164C108.702 15.0613 108.782 14.9073 108.782 14.702C108.782 14.5113 108.709 14.2107 108.562 13.8L107.726 11.534H101.676L100.664 14.24C100.62 14.372 100.598 14.482 100.598 14.57C100.598 14.8047 100.701 14.988 100.906 15.12C101.112 15.252 101.361 15.318 101.654 15.318H102.072V16H97.1002V15.318H97.4302C97.7382 15.318 98.0389 15.2447 98.3322 15.098C98.6402 14.9513 98.8382 14.7607 98.9262 14.526L104.162 0.973999L106.12 0.226L111.686 14.548C111.789 14.7973 111.965 14.988 112.214 15.12C112.464 15.252 112.728 15.318 113.006 15.318H113.424ZM107.352 10.522L104.734 3.35L102.05 10.522H107.352ZM120.539 16.22C118.133 16.22 116.293 15.5233 115.017 14.13C113.741 12.7367 113.103 10.7933 113.103 8.3C113.103 6.672 113.396 5.264 113.983 4.076C114.569 2.888 115.42 1.97867 116.535 1.348C117.664 0.702666 119.028 0.379999 120.627 0.379999C121.58 0.379999 122.416 0.511999 123.135 0.775999C123.868 1.02533 124.484 1.326 124.983 1.678C124.997 1.678 125.027 1.69267 125.071 1.722C125.115 1.75133 125.151 1.766 125.181 1.766C125.313 1.766 125.379 1.66333 125.379 1.458V0.489999H126.303V4.824H125.533C125.401 3.724 124.924 2.888 124.103 2.316C123.296 1.72933 122.321 1.436 121.177 1.436C119.461 1.436 118.126 2.052 117.173 3.284C116.234 4.516 115.765 6.188 115.765 8.3C115.765 10.456 116.197 12.1427 117.063 13.36C117.928 14.5773 119.211 15.186 120.913 15.186C121.939 15.186 122.885 14.9513 123.751 14.482C124.631 13.998 125.254 13.2427 125.621 12.216H126.611C126.347 13.4333 125.672 14.4087 124.587 15.142C123.501 15.8607 122.152 16.22 120.539 16.22ZM142.969 15.318V16H138.965L132.277 9.07V14.526C132.277 15.054 132.695 15.318 133.531 15.318H134.191V16H127.723V15.318H128.361C128.787 15.318 129.102 15.2593 129.307 15.142C129.527 15.01 129.637 14.8047 129.637 14.526V2.096C129.637 1.55333 129.212 1.282 128.361 1.282H127.723V0.599999H134.191V1.282H133.531C132.695 1.282 132.277 1.55333 132.277 2.096V7.464L138.459 2.03C138.577 1.91267 138.635 1.80267 138.635 1.7C138.635 1.42133 138.357 1.282 137.799 1.282H137.469V0.599999H142.133V1.282H141.649C141.385 1.282 141.158 1.326 140.967 1.414C140.777 1.502 140.586 1.62667 140.395 1.788L133.971 7.53L140.373 14.174C140.755 14.5553 141.085 14.8413 141.363 15.032C141.642 15.2227 141.965 15.318 142.331 15.318H142.969Z" fill="#D7B65D"/>
</svg>
