<svg width="20" height="20" viewBox="0 0 20 20" fill="none" xmlns="http://www.w3.org/2000/svg">
<path d="M18 0H2C1.45333 0 0.983333 0.196667 0.59 0.59C0.196667 0.983334 0 1.45333 0 2V18C0 18.5467 0.196667 19.0167 0.59 19.41C0.983333 19.8033 1.45333 20 2 20H18C18.5467 20 19.0167 19.8033 19.41 19.41C19.8033 19.0167 20 18.5467 20 18V2C20 1.45333 19.8033 0.983334 19.41 0.59C19.0167 0.196667 18.5467 0 18 0ZM19.2 18C19.2 18.3333 19.0833 18.6167 18.85 18.85C18.6167 19.0833 18.3333 19.2 18 19.2H2C1.66667 19.2 1.38333 19.0833 1.15 18.85C0.916667 18.6167 0.8 18.3333 0.8 18V2C0.8 1.66667 0.916667 1.38333 1.15 1.15C1.38333 0.916668 1.66667 0.800001 2 0.800001H18C18.3333 0.800001 18.6167 0.916668 18.85 1.15C19.0833 1.38333 19.2 1.66667 19.2 2V18ZM16.8 14.32V5.68C17.16 5.46667 17.45 5.17667 17.67 4.81C17.89 4.44333 18 4.04333 18 3.61C18 3.17667 17.8933 2.77333 17.68 2.4C17.4667 2.02667 17.1733 1.73333 16.8 1.52C16.4267 1.30667 16.0267 1.2 15.6 1.2C15.1733 1.2 14.7733 1.30667 14.4 1.52C14.0267 1.73333 13.7333 2.02667 13.52 2.4C13.3067 2.77333 13.2 3.17667 13.2 3.61C13.2 4.04333 13.31 4.44333 13.53 4.81C13.75 5.17667 14.04 5.46667 14.4 5.68V8.4H11.2V5.68C11.56 5.46667 11.85 5.17667 12.07 4.81C12.29 4.44333 12.4 4.04333 12.4 3.61C12.4 3.17667 12.2933 2.77333 12.08 2.4C11.8667 2.02667 11.5733 1.73333 11.2 1.52C10.8267 1.30667 10.4267 1.2 10 1.2C9.57333 1.2 9.17333 1.30667 8.8 1.52C8.42667 1.73333 8.13333 2.02667 7.92 2.4C7.70667 2.77333 7.6 3.17667 7.6 3.61C7.6 4.04333 7.71 4.44333 7.93 4.81C8.15 5.17667 8.44 5.46667 8.8 5.68V8.4H5.6V5.68C5.96 5.46667 6.25 5.17667 6.47 4.81C6.69 4.44333 6.8 4.04333 6.8 3.61C6.8 3.17667 6.69333 2.77333 6.48 2.4C6.26667 2.02667 5.97333 1.73333 5.6 1.52C5.22667 1.30667 4.82667 1.2 4.4 1.2C3.97333 1.2 3.57333 1.30667 3.2 1.52C2.82667 1.73333 2.53333 2.02667 2.32 2.4C2.10667 2.77333 2 3.17667 2 3.61C2 4.04333 2.11 4.44333 2.33 4.81C2.55 5.17667 2.84 5.46667 3.2 5.68V10.4C3.2 10.5067 3.24 10.6 3.32 10.68C3.4 10.76 3.49333 10.8 3.6 10.8H8.8V14.32C8.44 14.5333 8.15 14.8233 7.93 15.19C7.71 15.5567 7.6 15.9567 7.6 16.39C7.6 16.8233 7.70667 17.2267 7.92 17.6C8.13333 17.9733 8.42667 18.2667 8.8 18.48C9.17333 18.6933 9.57333 18.8 10 18.8C10.4267 18.8 10.8267 18.6933 11.2 18.48C11.5733 18.2667 11.8667 17.9733 12.08 17.6C12.2933 17.2267 12.4 16.8233 12.4 16.39C12.4 15.9567 12.29 15.5567 12.07 15.19C11.85 14.8233 11.56 14.5333 11.2 14.32V10.8H14.4V14.32C14.04 14.5333 13.75 14.8233 13.53 15.19C13.31 15.5567 13.2 15.9567 13.2 16.39C13.2 16.8233 13.3067 17.2267 13.52 17.6C13.7333 17.9733 14.0267 18.2667 14.4 18.48C14.7733 18.6933 15.1733 18.8 15.6 18.8C16.0267 18.8 16.4267 18.6933 16.8 18.48C17.1733 18.2667 17.4667 17.9733 17.68 17.6C17.8933 17.2267 18 16.8233 18 16.39C18 15.9567 17.89 15.5567 17.67 15.19C17.45 14.8233 17.16 14.5333 16.8 14.32ZM14 3.6C14 3.16 14.1567 2.78333 14.47 2.47C14.7833 2.15667 15.16 2 15.6 2C16.04 2 16.4167 2.15667 16.73 2.47C17.0433 2.78333 17.2 3.16 17.2 3.6C17.2 4.04 17.0433 4.41667 16.73 4.73C16.4167 5.04333 16.04 5.2 15.6 5.2C15.16 5.2 14.7833 5.04333 14.47 4.73C14.1567 4.41667 14 4.04 14 3.6ZM8.4 3.6C8.4 3.16 8.55667 2.78333 8.87 2.47C9.18333 2.15667 9.56 2 10 2C10.44 2 10.8167 2.15667 11.13 2.47C11.4433 2.78333 11.6 3.16 11.6 3.6C11.6 4.04 11.4433 4.41667 11.13 4.73C10.8167 5.04333 10.44 5.2 10 5.2C9.56 5.2 9.18333 5.04333 8.87 4.73C8.55667 4.41667 8.4 4.04 8.4 3.6ZM2.8 3.6C2.8 3.16 2.95667 2.78333 3.27 2.47C3.58333 2.15667 3.96 2 4.4 2C4.84 2 5.21667 2.15667 5.53 2.47C5.84333 2.78333 6 3.16 6 3.6C6 4.04 5.84333 4.41667 5.53 4.73C5.21667 5.04333 4.84 5.2 4.4 5.2C3.96 5.2 3.58333 5.04333 3.27 4.73C2.95667 4.41667 2.8 4.04 2.8 3.6ZM11.6 16.4C11.6 16.84 11.4433 17.2167 11.13 17.53C10.8167 17.8433 10.44 18 10 18C9.56 18 9.18333 17.8433 8.87 17.53C8.55667 17.2167 8.4 16.84 8.4 16.4C8.4 15.96 8.55667 15.5833 8.87 15.27C9.18333 14.9567 9.56 14.8 10 14.8C10.44 14.8 10.8167 14.9567 11.13 15.27C11.4433 15.5833 11.6 15.96 11.6 16.4ZM10.8 10C10.6933 10 10.6 10.04 10.52 10.12C10.44 10.2 10.4 10.2933 10.4 10.4V14.04C10.24 14.0133 10.1133 14 10.02 14C9.92667 14 9.8 14.0133 9.64 14.04H9.6V10.4C9.6 10.2933 9.56 10.2 9.48 10.12C9.4 10.04 9.30667 10 9.2 10H4V5.96H4.04C4.2 5.98667 4.32667 6 4.42 6C4.51333 6 4.64 5.98667 4.8 5.96V8.8C4.8 8.90667 4.84 9 4.92 9.08C5 9.16 5.09333 9.2 5.2 9.2H9.2C9.30667 9.2 9.4 9.16 9.48 9.08C9.56 9 9.6 8.90667 9.6 8.8V5.96H9.64C9.8 5.98667 9.92667 6 10.02 6C10.1133 6 10.24 5.98667 10.4 5.96V8.8C10.4 8.90667 10.44 9 10.52 9.08C10.6 9.16 10.6933 9.2 10.8 9.2H14.8C14.9067 9.2 15 9.16 15.08 9.08C15.16 9 15.2 8.90667 15.2 8.8V5.96H15.24C15.4 5.98667 15.5267 6 15.62 6C15.7133 6 15.84 5.98667 16 5.96V14.04C15.84 14.0133 15.7133 14 15.62 14C15.5267 14 15.4 14.0133 15.24 14.04H15.2V10.4C15.2 10.2933 15.16 10.2 15.08 10.12C15 10.04 14.9067 10 14.8 10H10.8ZM15.6 18C15.16 18 14.7833 17.8433 14.47 17.53C14.1567 17.2167 14 16.84 14 16.4C14 15.96 14.1567 15.5833 14.47 15.27C14.7833 14.9567 15.16 14.8 15.6 14.8C16.04 14.8 16.4167 14.9567 16.73 15.27C17.0433 15.5833 17.2 15.96 17.2 16.4C17.2 16.84 17.0433 17.2167 16.73 17.53C16.4167 17.8433 16.04 18 15.6 18Z" fill="#D7B65D"/>
</svg>
