<svg width="18" height="20" viewBox="0 0 18 20" fill="none" xmlns="http://www.w3.org/2000/svg">
<path d="M16.9196 15.3801C16.6396 15.0468 16.2396 14.8068 15.7196 14.6601C16.0929 13.6601 16.1696 12.3968 15.9496 10.8701C15.7296 9.34344 15.2263 7.64677 14.4396 5.78011C14.0663 5.02011 12.8063 4.50677 10.6596 4.24011L10.2596 4.22011V3.32011H13.1396C13.3129 3.32011 13.4396 3.24677 13.5196 3.10011C13.6929 2.76678 13.7596 2.39344 13.7196 1.98011C13.6796 1.56677 13.5496 1.18344 13.3296 0.830109C13.1096 0.476774 12.8329 0.213442 12.4996 0.0401077C12.4196 0.0134411 12.3529 0.000108719 12.2996 0.000108719H5.63959C5.59959 0.000108719 5.53959 0.0134411 5.45959 0.0401077C5.13959 0.200108 4.87292 0.460108 4.65959 0.820108C4.47292 1.15344 4.35626 1.52344 4.30959 1.93011C4.26292 2.33677 4.29959 2.70677 4.41959 3.04011C4.44626 3.13344 4.49626 3.20344 4.56959 3.25011C4.64292 3.29677 4.72626 3.32011 4.81959 3.32011H7.75959V4.22011C6.81292 4.30011 5.99959 4.45344 5.31959 4.68011C4.55959 4.93344 4.00626 5.27344 3.65959 5.70011L3.59959 5.80011C1.93292 9.76011 1.51292 12.6868 2.33959 14.5801C1.79292 14.6734 1.35292 14.9534 1.01959 15.4201C0.766257 15.8068 0.652924 16.2634 0.679591 16.7901C0.706257 17.3168 0.866257 17.8201 1.15959 18.3001C1.53292 18.9001 2.04292 19.3501 2.68959 19.6501C3.33626 19.9501 4.04626 20.0601 4.81959 19.9801H13.1196C13.2129 19.9934 13.3529 20.0001 13.5396 20.0001C14.1663 20.0001 14.7663 19.8468 15.3396 19.5401C15.8729 19.2601 16.3163 18.8801 16.6696 18.4001C17.0229 17.9201 17.2329 17.4201 17.2996 16.9001C17.3796 16.3001 17.2529 15.7934 16.9196 15.3801ZM5.13959 2.50011C5.09959 2.18011 5.13626 1.86011 5.24959 1.54011C5.36292 1.22011 5.53292 0.986774 5.75959 0.840107H12.1996C12.4529 0.986774 12.6429 1.22677 12.7696 1.56011C12.8963 1.89344 12.9196 2.20677 12.8396 2.50011H5.13959ZM9.41959 3.32011V4.16011H8.57959V3.32011H9.41959ZM10.5796 5.08011C11.3796 5.16011 12.0663 5.29344 12.6396 5.48011C13.1329 5.65344 13.4596 5.83344 13.6196 6.02011L10.0796 9.58011H7.91959L4.43959 6.08011C4.93292 5.62677 5.79959 5.30677 7.03959 5.12011C8.17292 4.96011 9.35292 4.94677 10.5796 5.08011ZM12.3996 15.5801C11.2129 15.3134 10.0929 15.1801 9.03959 15.1801C7.93292 15.1801 6.78626 15.3201 5.59959 15.6001L8.01959 10.4001H9.97959L12.3996 15.5801ZM4.41959 19.1601C3.73959 19.1734 3.15292 19.0134 2.65959 18.6801C2.32626 18.4534 2.05959 18.1768 1.85959 17.8501C1.65959 17.5234 1.54626 17.1768 1.51959 16.8101C1.49292 16.4434 1.55959 16.1334 1.71959 15.8801C1.93292 15.5468 2.29959 15.3801 2.81959 15.3801C3.21959 15.9001 3.75292 16.2801 4.41959 16.5201V19.1601ZM4.61959 15.7001C3.95292 15.4334 3.45959 14.9868 3.13959 14.3601C2.77959 13.5868 2.67626 12.5701 2.82959 11.3101C2.98292 10.0501 3.39292 8.57344 4.05959 6.88011L7.25959 10.0801L4.61959 15.7001ZM12.7396 19.1401H5.25959V16.5401C6.55292 16.2068 7.79626 16.0368 8.98959 16.0301C10.1829 16.0234 11.4329 16.1868 12.7396 16.5201V19.1401ZM13.4196 15.7801L10.7396 10.0801L13.9796 6.84011C14.6863 8.65344 15.0963 10.2734 15.2096 11.7001C15.3229 13.1268 15.1329 14.2201 14.6396 14.9801C14.3063 15.4734 13.8996 15.7401 13.4196 15.7801ZM16.4796 16.8001C16.4263 17.1601 16.2696 17.5234 16.0096 17.8901C15.7496 18.2568 15.4196 18.5534 15.0196 18.7801C14.5663 19.0334 14.0863 19.1601 13.5796 19.1601V16.6001C14.2863 16.4934 14.8663 16.1068 15.3196 15.4401C15.3329 15.4401 15.3396 15.4334 15.3396 15.4201C15.7796 15.5001 16.0863 15.6534 16.2596 15.8801C16.4329 16.1068 16.5063 16.4134 16.4796 16.8001Z" fill="#D7B65D"/>
</svg>
