<svg width="79" height="15" viewBox="0 0 79 15" fill="none" xmlns="http://www.w3.org/2000/svg">
<path d="M7.66211 0.941895C7.99023 0.285645 8.91992 0.312988 9.2207 0.941895L11.0254 4.57861L15.0176 5.15283C15.7285 5.26221 16.002 6.13721 15.4824 6.65674L12.6113 9.47314L13.2949 13.438C13.4043 14.1489 12.6387 14.6958 12.0098 14.3677L8.45508 12.481L4.87305 14.3677C4.24414 14.6958 3.47852 14.1489 3.58789 13.438L4.27148 9.47314L1.40039 6.65674C0.880859 6.13721 1.1543 5.26221 1.86523 5.15283L5.88477 4.57861L7.66211 0.941895ZM23.4121 0.941895C23.7402 0.285645 24.6699 0.312988 24.9707 0.941895L26.7754 4.57861L30.7676 5.15283C31.4785 5.26221 31.752 6.13721 31.2324 6.65674L28.3613 9.47314L29.0449 13.438C29.1543 14.1489 28.3887 14.6958 27.7598 14.3677L24.2051 12.481L20.623 14.3677C19.9941 14.6958 19.2285 14.1489 19.3379 13.438L20.0215 9.47314L17.1504 6.65674C16.6309 6.13721 16.9043 5.26221 17.6152 5.15283L21.6348 4.57861L23.4121 0.941895ZM39.1621 0.941895C39.4902 0.285645 40.4199 0.312988 40.7207 0.941895L42.5254 4.57861L46.5176 5.15283C47.2285 5.26221 47.502 6.13721 46.9824 6.65674L44.1113 9.47314L44.7949 13.438C44.9043 14.1489 44.1387 14.6958 43.5098 14.3677L39.9551 12.481L36.373 14.3677C35.7441 14.6958 34.9785 14.1489 35.0879 13.438L35.7715 9.47314L32.9004 6.65674C32.3809 6.13721 32.6543 5.26221 33.3652 5.15283L37.3848 4.57861L39.1621 0.941895ZM54.9121 0.941895C55.2402 0.285645 56.1699 0.312988 56.4707 0.941895L58.2754 4.57861L62.2676 5.15283C62.9785 5.26221 63.252 6.13721 62.7324 6.65674L59.8613 9.47314L60.5449 13.438C60.6543 14.1489 59.8887 14.6958 59.2598 14.3677L55.7051 12.481L52.123 14.3677C51.4941 14.6958 50.7285 14.1489 50.8379 13.438L51.5215 9.47314L48.6504 6.65674C48.1309 6.13721 48.4043 5.26221 49.1152 5.15283L53.1348 4.57861L54.9121 0.941895ZM70.6621 0.941895C70.9902 0.285645 71.9199 0.312988 72.2207 0.941895L74.0254 4.57861L78.0176 5.15283C78.7285 5.26221 79.002 6.13721 78.4824 6.65674L75.6113 9.47314L76.2949 13.438C76.4043 14.1489 75.6387 14.6958 75.0098 14.3677L71.4551 12.481L67.873 14.3677C67.2441 14.6958 66.4785 14.1489 66.5879 13.438L67.2715 9.47314L64.4004 6.65674C63.8809 6.13721 64.1543 5.26221 64.8652 5.15283L68.8848 4.57861L70.6621 0.941895Z" fill="#D7B65D"/>
</svg>
